STARTFONT 2.3
FONT -FontForge-Zen Tokyo Zoo-Book-R-Normal--36-360-72-72-P-169-ISO10646-1
SIZE 36 72 72  2
FONTBOUNDINGBOX 47 49 -4 -9
COMMENT "Generated by fontforge, http://fontforge.sourceforge.net"
COMMENT "Copyright 2021 The Zen Tokyo Zoo Project Authors (https://github.com/googlefonts/zen-tokyo-zoo)"
STARTPROPERTIES 40
FOUNDRY "FontForge"
FAMILY_NAME "Zen Tokyo Zoo"
WEIGHT_NAME "Book"
SLANT "R"
SETWIDTH_NAME "Normal"
ADD_STYLE_NAME ""
PIXEL_SIZE 36
POINT_SIZE 360
RESOLUTION_X 72
RESOLUTION_Y 72
SPACING "P"
AVERAGE_WIDTH 169
CHARSET_REGISTRY "ISO10646"
CHARSET_ENCODING "1"
FONTNAME_REGISTRY ""
CHARSET_COLLECTIONS "ISO10646-1"
BITS_PER_PIXEL 2
FONT_NAME "ZenTokyoZoo-Regular"
FACE_NAME "Zen Tokyo Zoo Regular"
COPYRIGHT "Copyright 2021 The Zen Tokyo Zoo Project Authors (https://github.com/googlefonts/zen-tokyo-zoo)"
FONT_VERSION "1.002; ttfautohint (v1.8.3)"
FONT_ASCENT 29
FONT_DESCENT 7
UNDERLINE_POSITION -5
UNDERLINE_THICKNESS 1
X_HEIGHT 14
CAP_HEIGHT 28
RAW_ASCENT 800
RAW_DESCENT 200
NORM_SPACE 10
RELATIVE_WEIGHT 40
RELATIVE_SETWIDTH 50
SUPERSCRIPT_X 0
SUPERSCRIPT_Y 12
SUPERSCRIPT_SIZE 21
SUBSCRIPT_X 0
SUBSCRIPT_Y 2
SUBSCRIPT_SIZE 21
AVG_LOWERCASE_WIDTH 148
AVG_UPPERCASE_WIDTH 272
ENDPROPERTIES
CHARS 338
STARTCHAR CR
ENCODING 13
SWIDTH 600 0
DWIDTH 22 0
BBX 1 1 0 0
BITMAP
00
ENDCHAR
STARTCHAR space
ENCODING 32
SWIDTH 280 0
DWIDTH 10 0
BBX 1 1 0 0
BITMAP
00
ENDCHAR
STARTCHAR exclam
ENCODING 33
SWIDTH 196 0
DWIDTH 7 0
BBX 5 15 1 0
BITMAP
7240
7240
7240
7240
7240
7240
7240
7240
7240
7240
7240
0000
7240
7240
7240
ENDCHAR
STARTCHAR quotedbl
ENCODING 34
SWIDTH 302 0
DWIDTH 11 0
BBX 9 5 1 10
BITMAP
C918C0
C918C0
C918C0
C918C0
C918C0
ENDCHAR
STARTCHAR numbersign
ENCODING 35
SWIDTH 513 0
DWIDTH 18 0
BBX 16 15 1 0
BITMAP
00630960
00970000
0D967FFE
00DA0000
00C90000
0CC9BFFE
018C0000
000025C0
7FFF6598
00003680
7FFF3268
00007340
06206300
0630A300
0A309600
ENDCHAR
STARTCHAR dollar
ENCODING 36
SWIDTH 379 0
DWIDTH 14 0
BBX 12 18 1 -2
BITMAP
002400
002400
0B25D0
282474
61250C
972585
975000
A2F900
381AD0
0B9068
006E4D
0001CA
4624CA
92258D
742428
1E25E0
012440
002400
ENDCHAR
STARTCHAR percent
ENCODING 37
SWIDTH 493 0
DWIDTH 18 0
BBX 16 15 1 0
BITMAP
1FD00624
74740D60
D75C25C0
C9CC6240
D78CD600
746A4C00
2FE62400
000D6000
0028CBE4
0062695D
00D672DA
028C6366
062472DA
0D60295D
28C00BE4
ENDCHAR
STARTCHAR ampersand
ENCODING 38
SWIDTH 487 0
DWIDTH 18 0
BBX 15 15 2 0
BITMAP
00BF8000
0391B000
062E2800
09625800
09629800
0A352800
07283400
028A1000
28D34624
B075C534
D61CA0A0
CA0A2880
D7D34D00
7401C700
1FF87280
ENDCHAR
STARTCHAR quotesingle
ENCODING 39
SWIDTH 146 0
DWIDTH 5 0
BBX 4 5 1 10
BITMAP
C9
C9
C9
C9
C9
ENDCHAR
STARTCHAR parenleft
ENCODING 40
SWIDTH 210 0
DWIDTH 8 0
BBX 6 17 1 -1
BITMAP
0450
1CD0
2580
3240
6300
A700
9600
D600
DA00
D600
9600
9600
6300
7240
3580
18C0
0CA0
ENDCHAR
STARTCHAR parenright
ENCODING 41
SWIDTH 210 0
DWIDTH 8 0
BBX 6 17 1 -1
BITMAP
4500
9600
7340
3680
25C0
18C0
0C90
0C90
0C90
0C90
0C90
18D0
18C0
2580
3240
6300
DA00
ENDCHAR
STARTCHAR asterisk
ENCODING 42
SWIDTH 358 0
DWIDTH 13 0
BBX 9 9 2 6
BITMAP
022000
522140
680A00
900180
100500
080800
262600
191900
040400
ENDCHAR
STARTCHAR plus
ENCODING 43
SWIDTH 394 0
DWIDTH 14 0
BBX 12 11 1 2
BITMAP
009600
009600
009600
009600
BC963E
009600
BC963E
009600
009600
009600
009600
ENDCHAR
STARTCHAR comma
ENCODING 44
SWIDTH 216 0
DWIDTH 8 0
BBX 5 5 1 -2
BITMAP
0440
28C0
2580
3240
6340
ENDCHAR
STARTCHAR hyphen
ENCODING 45
SWIDTH 326 0
DWIDTH 12 0
BBX 9 3 1 6
BITMAP
7FFFC0
000000
7FFFC0
ENDCHAR
STARTCHAR period
ENCODING 46
SWIDTH 176 0
DWIDTH 6 0
BBX 4 3 1 0
BITMAP
A7
A7
A7
ENDCHAR
STARTCHAR slash
ENCODING 47
SWIDTH 298 0
DWIDTH 11 0
BBX 9 15 1 0
BITMAP
007240
00A300
00D600
01C900
028D00
025C00
032800
063400
097000
0CA000
18D000
25C000
328000
634000
970000
ENDCHAR
STARTCHAR zero
ENCODING 48
SWIDTH 306 0
DWIDTH 11 0
BBX 9 16 1 -1
BITMAP
0BF800
391B00
A2E280
9625C0
CA28C0
CA28C0
CA28C0
CA28C0
CA28C0
CA28C0
CA28C0
D625C0
93F180
740740
1EAD00
015000
ENDCHAR
STARTCHAR one
ENCODING 49
SWIDTH 306 0
DWIDTH 11 0
BBX 9 15 1 0
BITMAP
7D7340
007340
007340
7D7340
007340
007340
007340
007340
007340
007340
007340
007340
007340
007340
007340
ENDCHAR
STARTCHAR two
ENCODING 50
SWIDTH 299 0
DWIDTH 11 0
BBX 9 15 1 0
BITMAP
0BF800
391A00
62E340
977680
003180
00D240
028700
0B1D00
1D3400
34A000
518000
000000
FFFF40
555500
FFFF40
ENDCHAR
STARTCHAR three
ENCODING 51
SWIDTH 324 0
DWIDTH 12 0
BBX 10 16 1 -1
BITMAP
06F900
291740
7001C0
91F490
825C60
000050
003900
001740
0001C0
002490
0028A0
9318A0
A2F4D0
740280
1EAE00
015400
ENDCHAR
STARTCHAR four
ENCODING 52
SWIDTH 339 0
DWIDTH 12 0
BBX 10 15 1 0
BITMAP
009340
01C700
024900
071C00
0A2400
0C7000
28A000
31CA30
000A30
FFCA30
000A30
000A30
FFCA30
000A30
000A30
ENDCHAR
STARTCHAR five
ENCODING 53
SWIDTH 363 0
DWIDTH 13 0
BBX 10 16 2 -1
BITMAP
7FFFC0
000000
000000
7FFFC0
000000
634000
634000
636D00
634740
6351C0
0018C0
5218D0
62F4C0
340280
1EAE00
015400
ENDCHAR
STARTCHAR six
ENCODING 54
SWIDTH 306 0
DWIDTH 11 0
BBX 9 16 1 -1
BITMAP
0BF800
391B00
A2E280
D625C0
CA0040
CA0000
CA0000
CA7800
CA1B00
CA5280
CA35C0
D629C0
93F180
740740
1EAD00
015000
ENDCHAR
STARTCHAR seven
ENCODING 55
SWIDTH 298 0
DWIDTH 11 0
BBX 9 15 1 0
BITMAP
BFFF80
000000
000000
BFFF80
000000
00A300
009600
00CA00
018D00
028C00
035800
032400
063000
097000
0CA000
ENDCHAR
STARTCHAR eight
ENCODING 56
SWIDTH 306 0
DWIDTH 11 0
BBX 9 16 1 -1
BITMAP
0BF800
391B00
A2E280
9625C0
D629C0
934180
A1E140
282800
0B4B00
91D280
D435C0
D625C0
93F180
740740
1EAD00
015000
ENDCHAR
STARTCHAR nine
ENCODING 57
SWIDTH 306 0
DWIDTH 11 0
BBX 9 16 1 -1
BITMAP
0BF800
391B00
A2E280
D625C0
D628C0
A268C0
3428C0
1B68C0
0028C0
0028C0
0028C0
D625C0
93F180
740740
1EAD00
015000
ENDCHAR
STARTCHAR colon
ENCODING 58
SWIDTH 176 0
DWIDTH 6 0
BBX 4 9 1 0
BITMAP
A7
A7
A7
00
00
00
A7
A7
A7
ENDCHAR
STARTCHAR semicolon
ENCODING 59
SWIDTH 217 0
DWIDTH 8 0
BBX 6 10 1 -1
BITMAP
0C90
0C90
0C90
0000
0000
0440
28C0
2580
3240
6340
ENDCHAR
STARTCHAR less
ENCODING 60
SWIDTH 450 0
DWIDTH 16 0
BBX 13 16 2 -1
BITMAP
00000040
00000B40
00007800
0006D180
002D1B40
0060B400
0B428000
91E40000
782E0000
0B82D000
01B46900
001E4780
0002E040
00002D00
00000680
00000040
ENDCHAR
STARTCHAR equal
ENCODING 61
SWIDTH 344 0
DWIDTH 12 0
BBX 10 9 1 2
BITMAP
BFFFF0
000000
BFFFF0
000000
000000
000000
BFFFF0
000000
BFFFF0
ENDCHAR
STARTCHAR greater
ENCODING 62
SWIDTH 450 0
DWIDTH 16 0
BBX 14 15 1 0
BITMAP
A0000000
2D000000
06D00000
A4780000
1E0B8000
02D0B400
006D1E40
000791D0
0060B800
02D10400
1E0B4000
A4780000
07900000
2D000000
A0000000
ENDCHAR
STARTCHAR question
ENCODING 63
SWIDTH 346 0
DWIDTH 12 0
BBX 9 15 2 0
BITMAP
1BF400
751E00
D6D340
CA7280
003580
007280
01D340
034A00
062800
063000
0A3000
052000
000000
0A3000
0A3000
ENDCHAR
STARTCHAR at
ENCODING 64
SWIDTH 490 0
DWIDTH 18 0
BBX 16 16 1 -1
BITMAP
006FE800
02FFFF80
0EE55AA0
274002A4
6A1BA59C
9C7FA569
88997525
88A42526
88D82525
8C6FF559
651FE818
36400BE0
19A01800
075BE400
01BAAD00
00055000
ENDCHAR
STARTCHAR A
ENCODING 65
SWIDTH 798 0
DWIDTH 29 0
BBX 27 29 1 0
BITMAP
00000C63400000
000018D7000000
000025C9500000
0000328C600000
00006358300000
00009725240000
0000CA325C0000
00028C618D0000
000358D0CA0000
000725C8970000
000A328D634000
000D6346318000
0018970328C000
0025CA025C9000
00328C018D6000
00635800CA3000
00972400972400
00CA3000725C00
018D63FF358D00
0358900028CA00
0724C0001C9700
0A328FFF8D6340
0D6340000A3280
1C972FFFE324C0
24CA0000025C90
328D0000018D60
6358000000CA30
97240000009724
CA30000000635C
ENDCHAR
STARTCHAR B
ENCODING 66
SWIDTH 784 0
DWIDTH 28 0
BBX 26 29 1 0
BITMAP
7258FFFFF90000
7258000016D000
7258FFFFE87400
725800001B4D00
7258FFFFE4D700
725800001D7340
72580000073680
72580000032580
72580000032580
72580000072580
725800001D7180
7258FFFFF49240
72580000078700
7258FFFFF90D00
72580000007880
7258000006D0D0
7258FFFFFE04A0
72580000004D70
7258000000CA30
72580000009630
72580000009630
7258000000CA30
72580000068D60
7259FFFFFD2890
7258000001E1C0
7259FFFFFE4740
72580000001D00
7258000005E400
7259FFFFFE4000
ENDCHAR
STARTCHAR C
ENCODING 67
SWIDTH 776 0
DWIDTH 28 0
BBX 26 31 1 -1
BITMAP
00000055500000
00002FAAAF9000
0002E40001B800
001E01AFE90740
00746E505BD090
01D2D1BFA46D00
034A1E505B4700
0A28B40001A000
1CA28000002000
24C70000000000
328D0000000000
63580000000000
97240000000000
96300000000000
D6300000000000
DA300000000000
D6300000000000
96300000000000
97240000000000
63280000000000
328C0000000000
24CA0000000000
1CA38000001000
0A24E00000B000
034E2E401B8600
01D296FFF92D00
0074794006E0A0
001E06FFF90780
0002E400017900
00002FAAAF9000
00000055540000
ENDCHAR
STARTCHAR D
ENCODING 68
SWIDTH 806 0
DWIDTH 29 0
BBX 27 29 1 0
BITMAP
7258FFFA400000
72580016B80000
7258FFFA4B8000
72580016F4A000
7258FFF91E2C00
72580016E2CA00
7258000068B280
725800000A28D0
72580000028DA0
7258000000C630
7258000000A324
72580000007358
72580000003258
7258000000329C
7258000000329C
7258000000325C
72580000007258
7258000000A318
7258000000D624
72580000028D30
725800000728A0
725800002D70D0
72580006E1D280
7258FFFE5B4A00
72580005B82C00
7258FFFE40A000
725800000B8000
72580016B80000
7258FFFA400000
ENDCHAR
STARTCHAR E
ENCODING 69
SWIDTH 677 0
DWIDTH 24 0
BBX 23 29 1 0
BITMAP
7258FFFFFFF4
725800000000
7258FFFFFFF4
725800000000
7258FFFFFFF4
725800000000
725800000000
725800000000
725800000000
725800000000
725800000000
7258FFFFFF40
725800000000
725800000000
7258FFFFFF40
725800000000
7258FFFFFF40
725800000000
725800000000
725800000000
725800000000
725800000000
725800000000
7258FFFFFFF4
725800000000
7258FFFFFFF4
725800000000
725800000000
7258FFFFFFF4
ENDCHAR
STARTCHAR F
ENCODING 70
SWIDTH 677 0
DWIDTH 24 0
BBX 23 29 1 0
BITMAP
7258FFFFFFF4
725800000000
7258FFFFFFF4
725800000000
7258FFFFFFF4
725800000000
725800000000
725800000000
725800000000
725800000000
725800000000
7258FFFFFF40
725800000000
725800000000
7258FFFFFF40
725800000000
7258FFFFFF40
725800000000
725800000000
725800000000
725800000000
725800000000
725800000000
725800000000
725800000000
725800000000
725800000000
725800000000
725800000000
ENDCHAR
STARTCHAR G
ENCODING 71
SWIDTH 872 0
DWIDTH 31 0
BBX 30 31 1 -1
BITMAP
0000005550000000
00002FAAAF900000
0002E40001B90000
001E01AFE9074000
00746E505BD1E000
01D2D1BFE46D2800
034A1E505B874D00
0A28B40000A1D500
1CA28000002CA000
24C70000000A0000
328D000000010000
6358000000000000
9724000000000000
9630000000000000
D6300002FFFFFFD0
DA30000000000000
D6300002FFFFFFD0
9630000000000000
9724000000000000
63280002FFFFFFD0
328C000000000000
24CA000000052480
1CA38000002C7280
0A24E00000B5D700
034E2E401B874D00
01D296FFF92D2800
0074794016E1E000
001E06FFF90B4000
0002E40001B90000
00002FAAAF900000
0000005554000000
ENDCHAR
STARTCHAR H
ENCODING 72
SWIDTH 781 0
DWIDTH 28 0
BBX 26 29 1 0
BITMAP
72580000028C90
72580000028C90
72580000028C90
72580000028C90
72580000028C90
72580000028C90
72580000028C90
72580000028C90
72580000028C90
72580000028C90
72580000028C90
7258FFFFF68C90
72580000028C90
72580000028C90
7258FFFFF68C90
72580000028C90
7258FFFFF68C90
72580000028C90
72580000028C90
72580000028C90
72580000028C90
72580000028C90
72580000028C90
72580000028C90
72580000028C90
72580000028C90
72580000028C90
72580000028C90
72580000028C90
ENDCHAR
STARTCHAR I
ENCODING 73
SWIDTH 262 0
DWIDTH 9 0
BBX 7 29 1 0
BITMAP
7258
7258
7258
7258
7258
7258
7258
7258
7258
7258
7258
7258
7258
7258
7258
7258
7258
7258
7258
7258
7258
7258
7258
7258
7258
7258
7258
7258
7258
ENDCHAR
STARTCHAR J
ENCODING 74
SWIDTH 674 0
DWIDTH 24 0
BBX 23 30 0 -1
BITMAP
000000006324
000000006324
000000006324
000000006324
000000006324
000000006324
000000006324
000000006324
000000006324
000000006324
000000006324
000000006324
000000006324
000000006324
000000006324
000000006324
000000006324
000000006324
625800006324
725800006324
32580000A724
358D0000DA30
28C600028D60
1CA2901B2890
0A286FF8B1C0
034B90078740
01E1BFF91D00
00690001B400
0006EAAF8000
000015540000
ENDCHAR
STARTCHAR K
ENCODING 75
SWIDTH 739 0
DWIDTH 27 0
BBX 25 29 1 0
BITMAP
7258000028A340
72580000628A00
72580001C71C00
725800034D3400
7258000A28A000
7258001C718000
72580035D70000
725800A24D0000
7258018A280000
7258011C700000
72580834D00000
72580A12800000
7258534A000000
725875D4000000
725A1C70000000
725A8A28000000
7258D38D000000
725834D3400000
72581C71C00000
72580A28A00000
7258028A280000
725800D34D0000
72580071D74000
7258001C71C000
7258000A28A000
725800034D3400
72580001D75D00
7258000071C700
7258000028A280
ENDCHAR
STARTCHAR L
ENCODING 76
SWIDTH 604 0
DWIDTH 22 0
BBX 21 29 1 0
BITMAP
725800000000
725800000000
725800000000
725800000000
725800000000
725800000000
725800000000
725800000000
725800000000
725800000000
725800000000
725800000000
725800000000
725800000000
725800000000
725800000000
725800000000
725800000000
725800000000
725800000000
725800000000
725800000000
725800000000
7258FFFFFF40
725800000000
7258FFFFFF40
725800000000
725800000000
7258FFFFFF40
ENDCHAR
STARTCHAR M
ENCODING 77
SWIDTH 909 0
DWIDTH 33 0
BBX 30 29 1 0
BITMAP
725800000000DA30
725800000000DA30
725800000008DA30
725880000018DA30
7258A0000074DA30
725834000090DA30
72581C000284DA30
72588A000718DA30
7258D3400D34DA30
725875C028A0DA30
725818A071C4DA30
72588A249358DA30
7258D35D0A24DA30
725871C71CA0DA30
725828A281C0DA30
72580934D340DA30
7258075C7100DA30
725801CA2800DA30
725800A24400DA30
72580035C000DA30
7258001C4000DA30
7258000A0000DA30
725800010000DA30
725800000000DA30
725800000000DA30
725800000000DA30
725800000000DA30
725800000000DA30
725800000000DA30
ENDCHAR
STARTCHAR N
ENCODING 78
SWIDTH 796 0
DWIDTH 29 0
BBX 26 29 1 0
BITMAP
7258000000C970
7258000000C970
7258400000C970
7258D00000C970
7258600000C970
7258280000C970
72584D0000C970
7258C70000C970
7258A28000C970
725834D000C970
72585D7000C970
7258C62800C970
7258A28D00C970
725834D740C970
72581C7180C970
72580A28A0C970
7258034D34C970
725801D718C970
7258006284C970
72580028D0C970
7258000D74C970
7258000718C970
7258000288C970
72580000D0C970
7258000070C970
7258000028C970
7258000008C970
7258000000C970
7258000000C970
ENDCHAR
STARTCHAR O
ENCODING 79
SWIDTH 894 0
DWIDTH 32 0
BBX 30 31 1 -1
BITMAP
0000005550000000
00002FAAAF900000
0002E40001B80000
001E01AFA90B4000
00746E505BD1D000
01D2D1BFE4683400
034A1E505B8B1D00
0A28B40000B1C700
1CA28000002CA240
24C70000000A35C0
328D0000000358D0
6358000000028CA0
972400000001C960
963000000000DA30
D630000000009630
DA30000000009630
D630000000009630
963000000000DA30
972400000000C960
6328000000018CA0
328C0000000358D0
24CA0000000A35C0
1CA38000001C6240
0A24E00000B5C700
034E2E401B875D00
01D296FFF92C3400
0074794016D1D000
001E06FFF90B4000
0002E40001B80000
00002FAAAF900000
0000005550000000
ENDCHAR
STARTCHAR P
ENCODING 80
SWIDTH 743 0
DWIDTH 27 0
BBX 25 29 1 0
BITMAP
7258FFFFF90000
7258000016D000
7258FFFFE87400
725800001B4D00
7258FFFFE4D700
725800001D7340
72580000073680
72580000032580
72580000032580
72580000072580
725800001D7180
7258FFFFF49240
72580000078700
7258FFFFF90D00
72580000007800
7258000006D000
7258FFFFFE0000
72580000000000
72580000000000
72580000000000
72580000000000
72580000000000
72580000000000
72580000000000
72580000000000
72580000000000
72580000000000
72580000000000
72580000000000
ENDCHAR
STARTCHAR Q
ENCODING 81
SWIDTH 911 0
DWIDTH 33 0
BBX 31 31 1 -1
BITMAP
0000005550000000
00002FAAAF800000
0002E40001B80000
001E01AFA90B4000
00746E505BD1D000
01D2D1BFE4787400
034A1E505B8B1D00
0A28B40001A28700
1CA280000028A340
24C70000000A35C0
328D0000000368D0
6358000000028CA0
972400000001C960
963000000000CA70
D63000000000D630
DA30000000009630
D63000000000D630
963000000010CA30
9724000000288970
63280000024A0D60
328C000001D28890
24CA00001874A0C0
1CA380000A1D2840
0A24E00002874A00
034E2E4014B1D280
01D296FFF82C74A0
00747940068B1D24
001E06FFF902C340
0002E40001B87480
00002FAAAF901C00
0000005550000400
ENDCHAR
STARTCHAR R
ENCODING 82
SWIDTH 745 0
DWIDTH 27 0
BBX 25 29 1 0
BITMAP
7258FFFFF90000
7258000016D000
7258FFFFE87400
725800001B4D00
7258FFFFE4D700
725800001D7340
72580000073680
72580000032580
72580000032580
72580000072580
725800001D7180
7258FFFFF49240
72580000078700
7258FFFFF90D00
72580000007800
7258000006D000
7258FFFFFE0000
72580000000000
72580014860000
7258001CA30000
72580009728000
7258000624C000
725800035CA000
72580001897000
72580000D62400
72580000A35C00
72580000318900
7258000028D700
725800000C6340
ENDCHAR
STARTCHAR S
ENCODING 83
SWIDTH 660 0
DWIDTH 24 0
BBX 22 31 1 -1
BITMAP
000055500000
001BAABE4000
01B5AFA5E000
075E516E6C00
1DA40002D700
3681BFA07280
734B516D25C0
A72800075880
963000024400
963400000000
936D00000000
61C790000000
30B46E400000
281B91B90000
0A01BE46D000
01E006F87800
002E401B8A00
0001B901A280
000006E428C0
0000001E0C90
000000028D60
00000001C960
00200001CD60
463400029C90
A35E401E28D0
71D2FFE4A280
2879001B8700
0A06FFE82D00
02E40001E400
002FAABE4000
000055500000
ENDCHAR
STARTCHAR T
ENCODING 84
SWIDTH 641 0
DWIDTH 23 0
BBX 23 29 0 0
BITMAP
BFFFFFFFFFF8
000000000000
BFFFFFFFFFF8
000000000000
BFFFFFFFFFF8
000000000000
000052140000
000063240000
000063240000
000063240000
000063240000
000063240000
000063240000
000063240000
000063240000
000063240000
000063240000
000063240000
000063240000
000063240000
000063240000
000063240000
000063240000
000063240000
000063240000
000063240000
000063240000
000063240000
000063240000
ENDCHAR
STARTCHAR U
ENCODING 85
SWIDTH 702 0
DWIDTH 25 0
BBX 23 30 1 -1
BITMAP
725800006324
725800006324
725800006324
725800006324
725800006324
725800006324
725800006324
725800006324
725800006324
725800006324
725800006324
725800006324
725800006324
725800006324
725800006324
725800006324
725800006324
725800006324
725800006324
325800006324
32580000A724
358D0000DA30
28D600028D60
0C72901B2890
0A286FF8B1C0
034B90078740
01E1BFF91D00
002D0001B400
0006EAAF8000
000015540000
ENDCHAR
STARTCHAR V
ENCODING 86
SWIDTH 758 0
DWIDTH 27 0
BBX 26 29 1 0
BITMAP
CA300000025C90
972400000328C0
63580000063580
328C0000097240
25C900000CA300
18D6000018D600
0CA3000025C900
09724000328C00
06358000635800
0328C000972400
025C9000CA3000
018D60018D6000
00CA30025C9000
0097240328C000
00635806358000
00328C09724000
0025C90CA30000
0018D618D60000
000CA315C90000
000972428C0000
00063583580000
000328C7240000
00025C92300000
00018D60600000
0000CA30900000
00009724C00000
00006358400000
0000328C000000
000025CA000000
ENDCHAR
STARTCHAR W
ENCODING 87
SWIDTH 972 0
DWIDTH 35 0
BBX 33 29 1 0
BITMAP
C970000D63000358C0
D630000C97000325C0
97240018D600063580
63280024C900097240
325C00358C000D6300
358C00325C000C9700
25C90063584018D600
18CA0093258024C900
0C9700D631C0358C00
0D6300C970C0325C00
0972418D6090635800
0636825C95A0932400
0325C358C570D63000
0358C325C630C97000
025C963583258D6000
018DA17243684C9000
00C97063125C18C000
00D63097258C25C000
009724CA28C9358000
006358C918D6324000
00325C4C0C97130000
00358C1C0D63070000
0025C9280A32460000
0018D6240635890000
000C97200325C80000
000D63100258C40000
00097240028C900000
00063580018D600000
000325C000C9700000
ENDCHAR
STARTCHAR X
ENCODING 88
SWIDTH 712 0
DWIDTH 26 0
BBX 24 29 1 0
BITMAP
72890000935C
24D70001CA34
1C6280035C60
0A24D00628D0
035C600D7280
018A3428D700
00D35C718A00
007289135C00
0028D70A3400
000C728C6000
000A24D0D000
00035C628000
0001CA350000
0000935C0000
0000718A0000
000128D30000
00034D728000
000A0A28D000
000C535C6000
0028D1CA2400
007284935C00
00D31C718A00
018A3428D340
035CA00D7280
0A34C00628D0
1C6280034C70
24D70001CA24
728D0000A35C
D718000031CA
ENDCHAR
STARTCHAR Y
ENCODING 89
SWIDTH 769 0
DWIDTH 28 0
BBX 27 29 0 0
BITMAP
718A000000D35C
28A34000028A34
0D35C0000718A0
0718A0000D35C0
0289340028A340
00D71C0071CA00
00728A00D35C00
0028D3428A3400
000D71C71CA000
000728A135C000
00028D34A24000
0000D71C4A0000
0000628A1D0000
000024D3580000
00001C71800000
00000510400000
00000110400000
00000325800000
00000325800000
00000325800000
00000325800000
00000325800000
00000325800000
00000325800000
00000325800000
00000325800000
00000325800000
00000325800000
00000325800000
ENDCHAR
STARTCHAR Z
ENCODING 90
SWIDTH 708 0
DWIDTH 25 0
BBX 25 29 0 0
BITMAP
03FFFFFF8D7180
00000000289340
03FFFFFC718A00
00000000935C00
03FFFFE18A3400
000000035CA000
0000000A35C000
0000001CA24000
00000035C70000
000000A24D0000
000001C6280000
0000024D700000
00000628D00000
00000D71800000
000028D3000000
0000728A000000
0000D31C000000
00028A34000000
00031CA0000000
000A35C0000000
001CA240000000
0035C600000000
00A24D00000000
01C629FFFFF800
024D7000000000
0628DBFFFFF800
0D728000000000
28D70000000000
72897FFFFFF800
ENDCHAR
STARTCHAR bracketleft
ENCODING 91
SWIDTH 320 0
DWIDTH 12 0
BBX 9 17 1 -1
BITMAP
726F80
724000
724000
726F80
724000
724000
724000
724000
724000
724000
724000
724000
724000
724000
726F80
724000
726F80
ENDCHAR
STARTCHAR backslash
ENCODING 92
SWIDTH 298 0
DWIDTH 11 0
BBX 9 15 1 0
BITMAP
970000
634000
328000
25C000
18D000
0CA000
097000
063400
032800
025C00
028D00
01C900
00D600
00A300
007240
ENDCHAR
STARTCHAR bracketright
ENCODING 93
SWIDTH 320 0
DWIDTH 12 0
BBX 9 17 1 -1
BITMAP
7F6580
002580
002580
7F6580
002580
002580
002580
002580
002580
002580
002580
002580
002580
002580
7F6580
002580
7F6580
ENDCHAR
STARTCHAR asciicircum
ENCODING 94
SWIDTH 309 0
DWIDTH 11 0
BBX 7 6 2 8
BITMAP
0300
0A00
1C90
2470
7224
D35C
ENDCHAR
STARTCHAR underscore
ENCODING 95
SWIDTH 472 0
DWIDTH 17 0
BBX 15 3 1 0
BITMAP
7FFFFFF4
00000000
7FFFFFF4
ENDCHAR
STARTCHAR grave
ENCODING 96
SWIDTH 195 0
DWIDTH 7 0
BBX 3 4 2 17
BITMAP
40
A0
34
1C
ENDCHAR
STARTCHAR a
ENCODING 97
SWIDTH 414 0
DWIDTH 15 0
BBX 15 15 0 0
BITMAP
0028D000
0035E000
0072B000
00A32800
00D75C00
01CB8D00
024DCA00
0318D700
0634A340
09707280
0CBFF5C0
18D018D0
25FFFC60
32800930
63400724
ENDCHAR
STARTCHAR b
ENCODING 98
SWIDTH 423 0
DWIDTH 15 0
BBX 13 15 1 0
BITMAP
A7FFF400
A7001E00
A7000340
A7FFE280
A7007580
A7002580
A7FFFA80
A7001B40
A7FFE280
A70028C0
A70018C0
A7FFF4C0
A7000280
A7001B40
A7FFF800
ENDCHAR
STARTCHAR c
ENCODING 99
SWIDTH 446 0
DWIDTH 16 0
BBX 14 15 1 0
BITMAP
006BF900
02E41B80
0E1BE4A0
28A45E00
72800100
97000000
D6000000
D6000000
D6000000
93400000
71E01A00
282FF860
0E0001D0
02E41B40
006FE400
ENDCHAR
STARTCHAR d
ENCODING 100
SWIDTH 450 0
DWIDTH 16 0
BBX 14 15 1 0
BITMAP
A7FF9000
A7016D00
A7000740
A7FF91C0
A701B490
A7000D70
A7000A30
A7000630
A7000630
A7000D70
A7007890
A7FF91C0
A7000740
A7016D00
A7FF9000
ENDCHAR
STARTCHAR e
ENCODING 101
SWIDTH 363 0
DWIDTH 13 0
BBX 12 15 1 0
BITMAP
A7FFFD
A70000
A70000
A7FFFD
A70000
A70000
A7FFF4
A70000
A7FFF4
A70000
A70000
A7FFFD
A70000
A70000
A7FFFD
ENDCHAR
STARTCHAR f
ENCODING 102
SWIDTH 365 0
DWIDTH 13 0
BBX 12 15 1 0
BITMAP
A7FFFD
A70000
A70000
A7FFFD
A70000
A70000
A7FFF4
A70000
A7FFF4
A70000
A70000
A70000
A70000
A70000
A70000
ENDCHAR
STARTCHAR g
ENCODING 103
SWIDTH 483 0
DWIDTH 17 0
BBX 16 15 1 0
BITMAP
006BF900
02E41B80
0E1BE4B0
28A45E10
72800200
97000000
D6007FFD
D6000000
D6000000
93407FFD
71E0175C
282FF928
0E0000A0
02E41B80
006FF900
ENDCHAR
STARTCHAR h
ENCODING 104
SWIDTH 428 0
DWIDTH 15 0
BBX 13 15 1 0
BITMAP
A70018C0
A70018C0
A70018C0
A70018C0
A70018C0
A70018C0
A7FFF8C0
A70028C0
A7FFF8C0
A70028C0
A70018C0
A70018C0
A70018C0
A70018C0
A70018C0
ENDCHAR
STARTCHAR i
ENCODING 105
SWIDTH 176 0
DWIDTH 6 0
BBX 4 15 1 0
BITMAP
A7
A7
A7
A7
A7
A7
A7
A7
A7
A7
A7
A7
A7
A7
A7
ENDCHAR
STARTCHAR j
ENCODING 106
SWIDTH 390 0
DWIDTH 14 0
BBX 12 15 1 0
BITMAP
0000D6
0000D6
0000D6
0000D6
0000D6
0000D6
0000D6
0000D6
4000D6
D600CA
934289
61FE0C
340028
0E41A0
01BE40
ENDCHAR
STARTCHAR k
ENCODING 107
SWIDTH 381 0
DWIDTH 14 0
BBX 12 15 1 0
BITMAP
A7018A
A7035C
A70A24
A70D70
A728D0
A73180
A7A340
A73E00
A74D00
A7C700
A7A280
A728A0
A70D34
A7075D
A701C7
ENDCHAR
STARTCHAR l
ENCODING 108
SWIDTH 330 0
DWIDTH 12 0
BBX 11 15 1 0
BITMAP
A70000
A70000
A70000
A70000
A70000
A70000
A70000
A70000
A70000
A70000
A70000
A7FFF4
A70000
A70000
A7FFF4
ENDCHAR
STARTCHAR m
ENCODING 109
SWIDTH 501 0
DWIDTH 18 0
BBX 16 15 1 0
BITMAP
A74001D6
A7C003D6
A7A00AD6
A7282CD6
A74D71D6
A7C7D3D6
A7A2CAD6
A728B8D6
A70D30D6
A70740D6
A70140D6
A70000D6
A70000D6
A70000D6
A70000D6
ENDCHAR
STARTCHAR n
ENCODING 110
SWIDTH 444 0
DWIDTH 16 0
BBX 14 15 1 0
BITMAP
A7400DA0
A7C00DA0
A7A00DA0
A7340DA0
A71C0DA0
A78A0DA0
A7D34DA0
A775CDA0
A718ADA0
A70A3DA0
A7035DA0
A701CDA0
A700ADA0
A7003DA0
A7001DA0
ENDCHAR
STARTCHAR o
ENCODING 111
SWIDTH 494 0
DWIDTH 18 0
BBX 16 15 1 0
BITMAP
006BE800
02E41B80
0E1BE4A0
28A45E24
7280028C
970000C9
D600009A
D6000096
D60000CA
93400289
71E01A0C
282FF824
0E0000A0
02E41B80
006FE800
ENDCHAR
STARTCHAR p
ENCODING 112
SWIDTH 412 0
DWIDTH 15 0
BBX 13 15 1 0
BITMAP
A7FFF400
A7001A00
A7000340
A7FFE180
A7007580
A7003580
A7FFE240
A7001A00
A7FFF800
A7000000
A7000000
A7000000
A7000000
A7000000
A7000000
ENDCHAR
STARTCHAR q
ENCODING 113
SWIDTH 494 0
DWIDTH 18 0
BBX 16 15 1 0
BITMAP
006BE900
02E41B80
0E1BE4A0
28A45E28
7280028C
970000C9
D6000096
D6000096
D6000ACA
934012CD
71E034B8
282FFD2C
0E000349
02E41BD0
006FF860
ENDCHAR
STARTCHAR r
ENCODING 114
SWIDTH 412 0
DWIDTH 15 0
BBX 13 15 1 0
BITMAP
A7FFF400
A7001A00
A7000340
A7FFE180
A7007580
A7003580
A7FFE240
A7001A00
A7FFF800
A70A3400
A7031800
A7024C00
A701C900
A700D700
A7006340
ENDCHAR
STARTCHAR s
ENCODING 115
SWIDTH 379 0
DWIDTH 14 0
BBX 12 15 1 0
BITMAP
06FE80
2E41B4
71BE1C
9746C9
960000
A2E400
381B90
0B9074
006E4D
0001C9
4601CA
92FF49
74001C
1E41B4
06FE80
ENDCHAR
STARTCHAR t
ENCODING 116
SWIDTH 349 0
DWIDTH 13 0
BBX 13 15 0 0
BITMAP
BFFFFF40
00000000
00000000
BFFFFF40
00A70000
00630000
00630000
00630000
00630000
00630000
00630000
00630000
00630000
00630000
00630000
ENDCHAR
STARTCHAR u
ENCODING 117
SWIDTH 400 0
DWIDTH 14 0
BBX 12 15 1 0
BITMAP
A700A3
A700A3
A700A3
A700A3
A700A3
A700A3
A700A3
A700A3
A700A3
A30093
6281C6
30BF49
28001C
0B41B4
01BF80
ENDCHAR
STARTCHAR v
ENCODING 118
SWIDTH 394 0
DWIDTH 14 0
BBX 14 15 0 0
BITMAP
63400C60
32801890
25C024C0
28C03180
1C907240
0D60A300
0A30D600
0725C900
035A8C00
028F5800
01CB2400
00D63000
00A3A000
0072D000
0035C000
ENDCHAR
STARTCHAR w
ENCODING 119
SWIDTH 521 0
DWIDTH 19 0
BBX 19 15 0 0
BITMAP
A300C90634
72418D0A30
32825D0960
25835E0C90
18C32B18D0
1C963728C0
0CA9727580
096D75B240
063CB5E340
0728E8E300
0329CC9600
025E8D6900
018F497D00
01CB063C00
00DB032800
ENDCHAR
STARTCHAR x
ENCODING 120
SWIDTH 369 0
DWIDTH 13 0
BBX 13 15 0 0
BITMAP
35C0A340
18A0C600
0D728D00
072B2800
024E3400
01CAA000
00A3C000
00B18000
00E8D000
028D7000
071E2400
0A375C00
1CA18A00
24D0D700
72807280
ENDCHAR
STARTCHAR y
ENCODING 121
SWIDTH 422 0
DWIDTH 15 0
BBX 15 15 0 0
BITMAP
71C00A28
28A01C70
0D3434D0
0728A280
028EC700
01D78D00
00A2A800
0034F000
00000000
000C9000
000C9000
000C9000
000C9000
000C9000
000C9000
ENDCHAR
STARTCHAR z
ENCODING 122
SWIDTH 409 0
DWIDTH 15 0
BBX 13 15 1 0
BITMAP
BFFFFF40
00000000
00000000
6AABEF40
00034A00
000D2800
0034A000
00D28000
034A0000
0D280000
34A00000
BFFFFF40
00000000
00000000
BFFFFF40
ENDCHAR
STARTCHAR braceleft
ENCODING 123
SWIDTH 443 0
DWIDTH 16 0
BBX 13 17 1 -1
BITMAP
00259FC0
00258000
00258000
00259FC0
00258000
00258000
00258000
7F658000
00258000
7F658000
00258000
00258000
00258000
00258000
00259FC0
00258000
00259FC0
ENDCHAR
STARTCHAR bar
ENCODING 124
SWIDTH 196 0
DWIDTH 7 0
BBX 5 17 1 -1
BITMAP
7240
7240
7240
7240
7240
7240
7240
7240
7240
7240
7240
7240
7240
7240
7240
7240
7240
ENDCHAR
STARTCHAR braceright
ENCODING 125
SWIDTH 506 0
DWIDTH 18 0
BBX 13 17 4 -1
BITMAP
FD630000
00630000
00630000
FD630000
00630000
00630000
00630000
00633F40
00630000
00633F40
00630000
00630000
00630000
00630000
FD630000
00630000
FD630000
ENDCHAR
STARTCHAR asciitilde
ENCODING 126
SWIDTH 450 0
DWIDTH 16 0
BBX 14 5 1 5
BITMAP
1BE90050
6416FF90
00000000
1BF90050
6416FF90
ENDCHAR
STARTCHAR uni00A0
ENCODING 160
SWIDTH 280 0
DWIDTH 10 0
BBX 1 1 0 0
BITMAP
00
ENDCHAR
STARTCHAR exclamdown
ENCODING 161
SWIDTH 196 0
DWIDTH 7 0
BBX 5 15 1 -4
BITMAP
7240
7240
7240
0000
7240
7240
7240
7240
7240
7240
7240
7240
7240
7240
7240
ENDCHAR
STARTCHAR cent
ENCODING 162
SWIDTH 305 0
DWIDTH 11 0
BBX 10 17 0 -2
BITMAP
009600
009600
000000
01BE40
0B55A0
28BE50
739680
A60000
9A0000
A60000
738140
39BF50
1E41B0
02FF80
000000
009600
009600
ENDCHAR
STARTCHAR sterling
ENCODING 163
SWIDTH 408 0
DWIDTH 15 0
BBX 14 15 0 0
BITMAP
06FE4000
2905B000
71BE2800
22464400
00000000
BFFFF400
00000000
BFFFF400
00000000
00000000
0D600000
00000000
BFFFFFE0
15555540
BFFFFFE0
ENDCHAR
STARTCHAR currency
ENCODING 164
SWIDTH 401 0
DWIDTH 14 0
BBX 12 12 1 1
BITMAP
0D0024
460061
A0BE07
1296C4
072CA0
066A60
063DA0
0381D0
70BF4A
910012
0A0074
080014
ENDCHAR
STARTCHAR yen
ENCODING 165
SWIDTH 423 0
DWIDTH 15 0
BBX 15 15 0 0
BITMAP
71C00A28
28A01C70
0D3434D0
0718A280
028AD700
00D78D00
0062A800
0024F000
00000000
000C9000
0F8C97D0
000C9000
0F8C97D0
000C9000
000C9000
ENDCHAR
STARTCHAR brokenbar
ENCODING 166
SWIDTH 196 0
DWIDTH 7 0
BBX 5 16 1 0
BITMAP
7240
7240
7240
7240
7240
7240
7240
0000
0000
7240
7240
7240
7240
7240
7240
7240
ENDCHAR
STARTCHAR section
ENCODING 167
SWIDTH 322 0
DWIDTH 12 0
BBX 10 17 1 -1
BITMAP
06F900
295780
62F8D0
9A1950
964000
71A900
1E4280
91B890
C90960
979590
746E00
1A5280
006890
450990
A7F8D0
380680
0BFE00
ENDCHAR
STARTCHAR dieresis
ENCODING 168
SWIDTH 287 0
DWIDTH 10 0
BBX 7 2 2 18
BITMAP
F0B4
F0B4
ENDCHAR
STARTCHAR copyright
ENCODING 169
SWIDTH 493 0
DWIDTH 18 0
BBX 16 16 1 0
BITMAP
006BE400
02E55B40
0A0001D0
2C000034
3400001C
A00BE00D
9039680A
D060000A
D090000A
90A0000A
A034180D
701FF41C
28000034
0E0000E0
02D01B80
006FF900
ENDCHAR
STARTCHAR ordfeminine
ENCODING 170
SWIDTH 331 0
DWIDTH 12 0
BBX 8 7 2 8
BITMAP
0970
16A4
2698
27D8
5825
DEB6
5411
ENDCHAR
STARTCHAR guillemotleft
ENCODING 171
SWIDTH 298 0
DWIDTH 11 0
BBX 9 7 1 4
BITMAP
060700
2D2D00
111000
070340
A06000
282D00
060700
ENDCHAR
STARTCHAR logicalnot
ENCODING 172
SWIDTH 420 0
DWIDTH 15 0
BBX 13 8 1 1
BITMAP
BFFFFF80
00000000
00000000
BFFFFF80
00000000
00003580
00003680
00003680
ENDCHAR
STARTCHAR uni00AD
ENCODING 173
SWIDTH 326 0
DWIDTH 12 0
BBX 9 3 1 6
BITMAP
7FFFC0
000000
7FFFC0
ENDCHAR
STARTCHAR registered
ENCODING 174
SWIDTH 493 0
DWIDTH 18 0
BBX 16 16 1 0
BITMAP
006BE400
02E55B40
0A0001D0
2C000034
3400001C
A037F40D
90301C0A
D0301C0A
D037F40A
9030700A
A030340D
7030181C
28000034
0E0000E0
02D01B80
006FF900
ENDCHAR
STARTCHAR macron
ENCODING 175
SWIDTH 331 0
DWIDTH 12 0
BBX 9 1 1 18
BITMAP
7FFFC0
ENDCHAR
STARTCHAR degree
ENCODING 176
SWIDTH 298 0
DWIDTH 11 0
BBX 8 7 1 8
BITMAP
07E4
2D5D
32D6
6363
32D7
281D
0BF4
ENDCHAR
STARTCHAR plusminus
ENCODING 177
SWIDTH 418 0
DWIDTH 15 0
BBX 13 15 1 0
BITMAP
00724000
00724000
00724000
00724000
3D725F00
00724000
3D725F00
00724000
00724000
00724000
00000000
00000000
BFFFFF80
15555500
BFFFFF80
ENDCHAR
STARTCHAR uni00B2
ENCODING 178
SWIDTH 233 0
DWIDTH 8 0
BBX 6 8 1 7
BITMAP
0B80
2090
2A60
1650
0980
1500
7FD0
7FD0
ENDCHAR
STARTCHAR uni00B3
ENCODING 179
SWIDTH 228 0
DWIDTH 8 0
BBX 5 8 2 7
BITMAP
6E00
8240
A940
0900
0640
0940
AA40
7D00
ENDCHAR
STARTCHAR acute
ENCODING 180
SWIDTH 195 0
DWIDTH 7 0
BBX 3 4 2 17
BITMAP
04
28
70
D0
ENDCHAR
STARTCHAR uni00B5
ENCODING 181
SWIDTH 506 0
DWIDTH 18 0
BBX 16 19 1 -4
BITMAP
72403240
72403240
72403240
72403240
72403240
72403240
72403240
72403240
72403240
72407240
7240A300
727F877C
72400D00
72517696
727F91BE
72400000
72400000
72400000
72400000
ENDCHAR
STARTCHAR paragraph
ENCODING 182
SWIDTH 435 0
DWIDTH 16 0
BBX 13 15 1 0
BITMAP
0BFFFFC0
39000000
A0000000
C2FFFF80
CA000000
CA0671C0
A7D671C0
740671C0
1BD671C0
000671C0
000671C0
000671C0
000671C0
000671C0
000671C0
ENDCHAR
STARTCHAR periodcentered
ENCODING 183
SWIDTH 176 0
DWIDTH 6 0
BBX 4 3 1 6
BITMAP
97
A7
A7
ENDCHAR
STARTCHAR cedilla
ENCODING 184
SWIDTH 261 0
DWIDTH 9 0
BBX 6 7 2 -6
BITMAP
0400
2800
7F80
6590
00A0
50D0
BF80
ENDCHAR
STARTCHAR uni00B9
ENCODING 185
SWIDTH 218 0
DWIDTH 8 0
BBX 5 8 1 7
BITMAP
7680
0280
7680
0280
0280
0280
0280
0280
ENDCHAR
STARTCHAR ordmasculine
ENCODING 186
SWIDTH 335 0
DWIDTH 12 0
BBX 9 8 2 7
BITMAP
1BE400
7BED00
D82700
D41740
D82640
D69300
741D00
1BE400
ENDCHAR
STARTCHAR guillemotright
ENCODING 187
SWIDTH 298 0
DWIDTH 11 0
BBX 9 7 1 4
BITMAP
603400
2D1E00
450100
607000
070240
2D1E00
603400
ENDCHAR
STARTCHAR onequarter
ENCODING 188
SWIDTH 429 0
DWIDTH 15 0
BBX 14 14 1 0
BITMAP
E9401A00
09402600
09405800
09409400
09426000
09469000
09498000
001A0A40
00262600
00582900
00945A50
0260BA50
0690BA50
09800250
ENDCHAR
STARTCHAR onehalf
ENCODING 189
SWIDTH 437 0
DWIDTH 16 0
BBX 14 14 1 0
BITMAP
E9402600
E9406900
09409800
09416000
09425000
09498000
09494B80
00262590
00692760
00981660
01600980
02501540
09807FE0
09407FE0
ENDCHAR
STARTCHAR threequarters
ENCODING 190
SWIDTH 409 0
DWIDTH 15 0
BBX 13 15 1 0
BITMAP
2E001000
AE806900
55809800
0A01A000
06426000
9D858000
91494000
2E260000
00292600
00986800
01A49800
0260A980
0582F580
0942F580
26000580
ENDCHAR
STARTCHAR questiondown
ENCODING 191
SWIDTH 346 0
DWIDTH 12 0
BBX 10 15 1 -2
BITMAP
028C00
028C00
000000
014800
028C00
029C00
075800
1D2800
24B000
31C000
724000
328DA0
35F8D0
1D0680
06FE00
ENDCHAR
STARTCHAR Agrave
ENCODING 192
SWIDTH 798 0
DWIDTH 29 0
BBX 27 40 1 0
BITMAP
00014400000000
0001CA00000000
0000A340000000
000031C0000000
00002890000000
00000D70000000
00000728000000
0000024D000000
00000000000000
00000000000000
00000000000000
00000C63400000
000018D7000000
000025C9500000
0000328C600000
00006358300000
00009725240000
0000CA325C0000
00028C618D0000
000358D0CA0000
000725C8970000
000A328D634000
000D6346318000
0018970328C000
0025CA025C9000
00328C018D6000
00635800CA3000
00972400972400
00CA3000725C00
018D63FF358D00
0358900028CA00
0724C0001C9700
0A328FFF8D6340
0D6340000A3280
1C972FFFE324C0
24CA0000025C90
328D0000018D60
6358000000CA30
97240000009724
CA30000000635C
ENDCHAR
STARTCHAR Aacute
ENCODING 193
SWIDTH 798 0
DWIDTH 29 0
BBX 27 40 1 0
BITMAP
00000000410000
000000018A0000
000000035C0000
0000000A240000
0000001C700000
00000028D00000
00000072800000
000000D3000000
00000000000000
00000000000000
00000000000000
00000C63400000
000018D7000000
000025C9500000
0000328C600000
00006358300000
00009725240000
0000CA325C0000
00028C618D0000
000358D0CA0000
000725C8970000
000A328D634000
000D6346318000
0018970328C000
0025CA025C9000
00328C018D6000
00635800CA3000
00972400972400
00CA3000725C00
018D63FF358D00
0358900028CA00
0724C0001C9700
0A328FFF8D6340
0D6340000A3280
1C972FFFE324C0
24CA0000025C90
328D0000018D60
6358000000CA30
97240000009724
CA30000000635C
ENDCHAR
STARTCHAR Acircumflex
ENCODING 194
SWIDTH 798 0
DWIDTH 29 0
BBX 27 40 1 0
BITMAP
00000514000000
00000D34000000
000028A2400000
000071C0D00000
0001D74C700000
00034D0A280000
000A28034D0000
001C7001D74000
00000000000000
00000000000000
00000000000000
00000C63400000
000018D7000000
000025C9500000
0000328C600000
00006358300000
00009725240000
0000CA325C0000
00028C618D0000
000358D0CA0000
000725C8970000
000A328D634000
000D6346318000
0018970328C000
0025CA025C9000
00328C018D6000
00635800CA3000
00972400972400
00CA3000725C00
018D63FF358D00
0358900028CA00
0724C0001C9700
0A328FFF8D6340
0D6340000A3280
1C972FFFE324C0
24CA0000025C90
328D0000018D60
6358000000CA30
97240000009724
CA30000000635C
ENDCHAR
STARTCHAR Atilde
ENCODING 195
SWIDTH 798 0
DWIDTH 29 0
BBX 27 36 1 0
BITMAP
0000BE40020000
000291E0030000
000700381A0000
0006000BF80000
00000000000000
00000000000000
00000000000000
00000C63400000
000018D7000000
000025C9500000
0000328C600000
00006358300000
00009725240000
0000CA325C0000
00028C618D0000
000358D0CA0000
000725C8970000
000A328D634000
000D6346318000
0018970328C000
0025CA025C9000
00328C018D6000
00635800CA3000
00972400972400
00CA3000725C00
018D63FF358D00
0358900028CA00
0724C0001C9700
0A328FFF8D6340
0D6340000A3280
1C972FFFE324C0
24CA0000025C90
328D0000018D60
6358000000CA30
97240000009724
CA30000000635C
ENDCHAR
STARTCHAR Adieresis
ENCODING 196
SWIDTH 798 0
DWIDTH 29 0
BBX 27 39 1 0
BITMAP
0006E4006E4000
001D5D0295D000
0024070300A000
00340307006000
0024070300A000
001D1A0281D000
0007F800BF4000
00000000000000
00000000000000
00000000000000
00000C63400000
000018D7000000
000025C9500000
0000328C600000
00006358300000
00009725240000
0000CA325C0000
00028C618D0000
000358D0CA0000
000725C8970000
000A328D634000
000D6346318000
0018970328C000
0025CA025C9000
00328C018D6000
00635800CA3000
00972400972400
00CA3000725C00
018D63FF358D00
0358900028CA00
0724C0001C9700
0A328FFF8D6340
0D6340000A3280
1C972FFFE324C0
24CA0000025C90
328D0000018D60
6358000000CA30
97240000009724
CA30000000635C
ENDCHAR
STARTCHAR Aring
ENCODING 197
SWIDTH 798 0
DWIDTH 29 0
BBX 27 40 1 0
BITMAP
000001B9000000
00000B57400000
00000D01C00000
00001C00C00000
00001800C00000
00000C01C00000
00000A07400000
000002FD000000
00000000000000
00000000000000
00000000000000
00000C63400000
000018D7000000
000025C9500000
0000328C600000
00006358300000
00009725240000
0000CA325C0000
00028C618D0000
000358D0CA0000
000725C8970000
000A328D634000
000D6346318000
0018970328C000
0025CA025C9000
00328C018D6000
00635800CA3000
00972400972400
00CA3000725C00
018D63FF358D00
0358900028CA00
0724C0001C9700
0A328FFF8D6340
0D6340000A3280
1C972FFFE324C0
24CA0000025C90
328D0000018D60
6358000000CA30
97240000009724
CA30000000635C
ENDCHAR
STARTCHAR AE
ENCODING 198
SWIDTH 1078 0
DWIDTH 39 0
BBX 37 29 1 0
BITMAP
00000006325FFFFFFF80
00000006328000000000
00000017358FFFFFFF80
00000063258000000000
000000D325CBFFFFFF80
0000018358C000000000
0000036258C000000000
000006325CD000000000
00000D628C9000000000
000018D18C9000000000
000035858DA000000000
00006358C963FFFFF800
0000D624C96000000000
00018D70CA3000000000
000358909632FFFFF800
000635C0963400000000
000D6240A725FFFFF800
0018D700632400000000
00358900632800000000
00635C00735800000000
00D624FE325800000000
018D7000325C00000000
035C97FF358C00000000
0A35C000258CBFFFFF80
0D72800025CD00000000
28D71FFF68C97FFFFF80
35CA000018C900000000
A35C000018DA00000000
D72800000C963FFFFF80
ENDCHAR
STARTCHAR Ccedilla
ENCODING 199
SWIDTH 776 0
DWIDTH 28 0
BBX 26 38 1 -8
BITMAP
00000055500000
00002FAAAF9000
0002E40001B800
001E01AFE90740
00746E505BD090
01D2D1BFA46D00
034A1E505B4700
0A28B40001A000
1CA28000002000
24C70000000000
328D0000000000
63580000000000
97240000000000
96300000000000
D6300000000000
DA300000000000
D6300000000000
96300000000000
97240000000000
63280000000000
328C0000000000
24CA0000000000
1CA38000001000
0A24E00000B000
034E2E401B8600
01D296FFF92D00
0074794006E0A0
001E06FFF90780
0002E400017900
00002FFAAF9000
000000F5540000
000001C0000000
000003FE000000
00000746C00000
00000000900000
00000000900000
00001902C00000
000007FE000000
ENDCHAR
STARTCHAR Egrave
ENCODING 200
SWIDTH 677 0
DWIDTH 24 0
BBX 23 40 1 0
BITMAP
000010400000
000028D00000
00000D700000
000006280000
0000034C0000
000001CA0000
000000A34000
00000071C000
000000000000
000000000000
000000000000
7258FFFFFFF4
725800000000
7258FFFFFFF4
725800000000
7258FFFFFFF4
725800000000
725800000000
725800000000
725800000000
725800000000
725800000000
7258FFFFFF40
725800000000
725800000000
7258FFFFFF40
725800000000
7258FFFFFF40
725800000000
725800000000
725800000000
725800000000
725800000000
725800000000
7258FFFFFFF4
725800000000
7258FFFFFFF4
725800000000
725800000000
7258FFFFFFF4
ENDCHAR
STARTCHAR Eacute
ENCODING 201
SWIDTH 677 0
DWIDTH 24 0
BBX 23 40 1 0
BITMAP
000000114000
000000A24000
000000C70000
0000028D0000
000007280000
00000D300000
000018A00000
000035C00000
000000000000
000000000000
000000000000
7258FFFFFFF4
725800000000
7258FFFFFFF4
725800000000
7258FFFFFFF4
725800000000
725800000000
725800000000
725800000000
725800000000
725800000000
7258FFFFFF40
725800000000
725800000000
7258FFFFFF40
725800000000
7258FFFFFF40
725800000000
725800000000
725800000000
725800000000
725800000000
725800000000
7258FFFFFFF4
725800000000
7258FFFFFFF4
725800000000
725800000000
7258FFFFFFF4
ENDCHAR
STARTCHAR Ecircumflex
ENCODING 202
SWIDTH 677 0
DWIDTH 24 0
BBX 23 40 1 0
BITMAP
000005140000
00001C700000
000034D30000
0000A2828000
00028A18A000
00071C0D3400
000D34071C00
0028A0028A00
000000000000
000000000000
000000000000
7258FFFFFFF4
725800000000
7258FFFFFFF4
725800000000
7258FFFFFFF4
725800000000
725800000000
725800000000
725800000000
725800000000
725800000000
7258FFFFFF40
725800000000
725800000000
7258FFFFFF40
725800000000
7258FFFFFF40
725800000000
725800000000
725800000000
725800000000
725800000000
725800000000
7258FFFFFFF4
725800000000
7258FFFFFFF4
725800000000
725800000000
7258FFFFFFF4
ENDCHAR
STARTCHAR Edieresis
ENCODING 203
SWIDTH 677 0
DWIDTH 24 0
BBX 23 39 1 0
BITMAP
000BE000BE00
00296C039680
00300A0600D0
006006090090
00700A0600D0
00281C0342C0
000BF401BE00
000000000000
000000000000
000000000000
7258FFFFFFF4
725800000000
7258FFFFFFF4
725800000000
7258FFFFFFF4
725800000000
725800000000
725800000000
725800000000
725800000000
725800000000
7258FFFFFF40
725800000000
725800000000
7258FFFFFF40
725800000000
7258FFFFFF40
725800000000
725800000000
725800000000
725800000000
725800000000
725800000000
7258FFFFFFF4
725800000000
7258FFFFFFF4
725800000000
725800000000
7258FFFFFFF4
ENDCHAR
STARTCHAR Igrave
ENCODING 204
SWIDTH 262 0
DWIDTH 9 0
BBX 10 40 -2 0
BITMAP
510000
728000
28D000
1C7000
0A2400
035C00
018A00
009340
000000
000000
000000
01C960
01C960
01C960
01C960
01C960
01C960
01C960
01C960
01C960
01C960
01C960
01C960
01C960
01C960
01C960
01C960
01C960
01C960
01C960
01C960
01C960
01C960
01C960
01C960
01C960
01C960
01C960
01C960
01C960
ENDCHAR
STARTCHAR Iacute
ENCODING 205
SWIDTH 262 0
DWIDTH 9 0
BBX 10 40 1 0
BITMAP
000410
0018A0
0035C0
00A340
01C600
024D00
072800
0D7000
000000
000000
000000
725800
725800
725800
725800
725800
725800
725800
725800
725800
725800
725800
725800
725800
725800
725800
725800
725800
725800
725800
725800
725800
725800
725800
725800
725800
725800
725800
725800
725800
ENDCHAR
STARTCHAR Icircumflex
ENCODING 206
SWIDTH 262 0
DWIDTH 9 0
BBX 15 40 -3 0
BITMAP
00104000
00A28000
01C71800
035D0A00
0A389340
28A071C0
71C028A0
D3400D34
00000000
00000000
00000000
00725800
00725800
00725800
00725800
00725800
00725800
00725800
00725800
00725800
00725800
00725800
00725800
00725800
00725800
00725800
00725800
00725800
00725800
00725800
00725800
00725800
00725800
00725800
00725800
00725800
00725800
00725800
00725800
00725800
ENDCHAR
STARTCHAR Idieresis
ENCODING 207
SWIDTH 262 0
DWIDTH 9 0
BBX 17 39 -4 0
BITMAP
0BE001B900
3968075740
600D0901C0
90090D00C0
600D0901C0
3428074280
1BE001FE00
0000000000
0000000000
0000000000
001C960000
001C960000
001C960000
001C960000
001C960000
001C960000
001C960000
001C960000
001C960000
001C960000
001C960000
001C960000
001C960000
001C960000
001C960000
001C960000
001C960000
001C960000
001C960000
001C960000
001C960000
001C960000
001C960000
001C960000
001C960000
001C960000
001C960000
001C960000
001C960000
ENDCHAR
STARTCHAR Eth
ENCODING 208
SWIDTH 856 0
DWIDTH 31 0
BBX 30 29 0 0
BITMAP
018C97FFE9000000
018C90005BE00000
018C97FFE56D0000
018C90015B978000
018C97FFA478A000
018C90015B4A2800
018C900001E28D00
018C900000289700
018C9000000D7240
018C9000000729C0
0000000000025CD0
BFFFFFF800018C90
000000000001CDA0
000000000001C960
BFFFFFF80001C960
000000000001CD60
BFFFFFF800018CA0
0000000000025C90
00000000000728D0
018C9000000A31C0
018C90000028A280
018C900000A2C700
018C90001B8B0D00
018C97FFE8682800
018C900016D0A000
018C97FFF9078000
018C9000006D0000
018C90005BE00000
018C97FFE9000000
ENDCHAR
STARTCHAR Ntilde
ENCODING 209
SWIDTH 796 0
DWIDTH 29 0
BBX 26 36 1 0
BITMAP
0000BE40020000
000291D0070000
000700781E0000
0006000BF80000
00000000000000
00000000000000
00000000000000
7258000000C970
7258000000C970
7258400000C970
7258D00000C970
7258600000C970
7258280000C970
72584D0000C970
7258C70000C970
7258A28000C970
725834D000C970
72585D7000C970
7258C62800C970
7258A28D00C970
725834D740C970
72581C7180C970
72580A28A0C970
7258034D34C970
725801D718C970
7258006284C970
72580028D0C970
7258000D74C970
7258000718C970
7258000288C970
72580000D0C970
7258000070C970
7258000028C970
7258000008C970
7258000000C970
7258000000C970
ENDCHAR
STARTCHAR Ograve
ENCODING 210
SWIDTH 894 0
DWIDTH 32 0
BBX 30 41 1 -1
BITMAP
0000104000000000
0000289000000000
00000D7000000000
0000072800000000
0000024D00000000
000001C600000000
000000A340000000
00000035C0000000
0000000000000000
0000000000000000
0000005550000000
00002FAAAF900000
0002E40001B80000
001E01AFA90B4000
00746E505BD1D000
01D2D1BFE4683400
034A1E505B8B1D00
0A28B40000B1C700
1CA28000002CA240
24C70000000A35C0
328D0000000358D0
6358000000028CA0
972400000001C960
963000000000DA30
D630000000009630
DA30000000009630
D630000000009630
963000000000DA30
972400000000C960
6328000000018CA0
328C0000000358D0
24CA0000000A35C0
1CA38000001C6240
0A24E00000B5C700
034E2E401B875D00
01D296FFF92C3400
0074794016D1D000
001E06FFF90B4000
0002E40001B80000
00002FAAAF900000
0000005550000000
ENDCHAR
STARTCHAR Oacute
ENCODING 211
SWIDTH 894 0
DWIDTH 32 0
BBX 30 41 1 -1
BITMAP
0000000011400000
00000000A2400000
00000001C7000000
000000028D000000
0000000728000000
0000000D30000000
00000018A0000000
00000035C0000000
0000000000000000
0000000000000000
0000005550000000
00002FAAAF900000
0002E40001B80000
001E01AFA90B4000
00746E505BD1D000
01D2D1BFE4683400
034A1E505B8B1D00
0A28B40000B1C700
1CA28000002CA240
24C70000000A35C0
328D0000000358D0
6358000000028CA0
972400000001C960
963000000000DA30
D630000000009630
DA30000000009630
D630000000009630
963000000000DA30
972400000000C960
6328000000018CA0
328C0000000358D0
24CA0000000A35C0
1CA38000001C6240
0A24E00000B5C700
034E2E401B875D00
01D296FFF92C3400
0074794016D1D000
001E06FFF90B4000
0002E40001B80000
00002FAAAF900000
0000005550000000
ENDCHAR
STARTCHAR Ocircumflex
ENCODING 212
SWIDTH 894 0
DWIDTH 32 0
BBX 30 41 1 -1
BITMAP
0000005140000000
000001C700000000
0000034D34000000
00000A281C000000
00001C718A000000
000075D0D3400000
0000D34075C00000
00028A0028A00000
0000000000000000
0000000000000000
0000005550000000
00002FAAAF900000
0002E40001B80000
001E01AFA90B4000
00746E505BD1D000
01D2D1BFE4683400
034A1E505B8B1D00
0A28B40000B1C700
1CA28000002CA240
24C70000000A35C0
328D0000000358D0
6358000000028CA0
972400000001C960
963000000000DA30
D630000000009630
DA30000000009630
D630000000009630
963000000000DA30
972400000000C960
6328000000018CA0
328C0000000358D0
24CA0000000A35C0
1CA38000001C6240
0A24E00000B5C700
034E2E401B875D00
01D296FFF92C3400
0074794016D1D000
001E06FFF90B4000
0002E40001B80000
00002FAAAF900000
0000005550000000
ENDCHAR
STARTCHAR Otilde
ENCODING 213
SWIDTH 894 0
DWIDTH 32 0
BBX 30 37 1 -1
BITMAP
00000BE000200000
0000396D00600000
0000A00781D00000
00009001BF400000
0000000000000000
0000000000000000
0000005550000000
00002FAAAF900000
0002E40001B80000
001E01AFA90B4000
00746E505BD1D000
01D2D1BFE4683400
034A1E505B8B1D00
0A28B40000B1C700
1CA28000002CA240
24C70000000A35C0
328D0000000358D0
6358000000028CA0
972400000001C960
963000000000DA30
D630000000009630
DA30000000009630
D630000000009630
963000000000DA30
972400000000C960
6328000000018CA0
328C0000000358D0
24CA0000000A35C0
1CA38000001C6240
0A24E00000B5C700
034E2E401B875D00
01D296FFF92C3400
0074794016D1D000
001E06FFF90B4000
0002E40001B80000
00002FAAAF900000
0000005550000000
ENDCHAR
STARTCHAR Odieresis
ENCODING 214
SWIDTH 894 0
DWIDTH 32 0
BBX 30 40 1 -1
BITMAP
00006E000BE00000
000296C029680000
000300A0600D0000
00070060A0090000
000300A060090000
000281D0342C0000
0000BF401BE00000
0000000000000000
0000000000000000
0000005550000000
00002FAAAF900000
0002E40001B80000
001E01AFA90B4000
00746E505BD1D000
01D2D1BFE4683400
034A1E505B8B1D00
0A28B40000B1C700
1CA28000002CA240
24C70000000A35C0
328D0000000358D0
6358000000028CA0
972400000001C960
963000000000DA30
D630000000009630
DA30000000009630
D630000000009630
963000000000DA30
972400000000C960
6328000000018CA0
328C0000000358D0
24CA0000000A35C0
1CA38000001C6240
0A24E00000B5C700
034E2E401B875D00
01D296FFF92C3400
0074794016D1D000
001E06FFF90B4000
0002E40001B80000
00002FAAAF900000
0000005550000000
ENDCHAR
STARTCHAR multiply
ENCODING 215
SWIDTH 370 0
DWIDTH 13 0
BBX 11 10 1 2
BITMAP
0A0180
134740
741D34
1874E0
01D380
074E00
1D3860
34E038
038744
0601C0
ENDCHAR
STARTCHAR Oslash
ENCODING 216
SWIDTH 894 0
DWIDTH 32 0
BBX 30 31 1 -1
BITMAP
0000005550010000
00002FAAAF874000
0002E40001492000
001E01AFE928A100
00746E505571C700
01D2D1BFE0D34D00
034A1E50528A2800
0A28B400071C6200
1C6280000D35D280
24D7000028A345C0
328D0000618A1890
63580001D75C4CA0
A32400034D34C960
9630000A28A0CA30
D630071C71C09630
DA300D34D3409630
DA3028A28A009630
963071C70400DA30
9624D34D0000C960
63128A2800018CA0
724728A0000358D0
354D71C0000A35C0
1828D340001CA240
0CA28A0000B5C700
01C71C001B875D00
034D34BFF92C3400
0A28A10016D1D000
0871C6FFF90B4000
00D7540001B80000
000D1FAAAF900000
0004005550000000
ENDCHAR
STARTCHAR Ugrave
ENCODING 217
SWIDTH 702 0
DWIDTH 25 0
BBX 23 41 1 -1
BITMAP
001440000000
0018A0000000
000D30000000
000728000000
00028D000000
0001C7000000
0000A2400000
000035C00000
000000000000
000000000000
000000000000
725800006324
725800006324
725800006324
725800006324
725800006324
725800006324
725800006324
725800006324
725800006324
725800006324
725800006324
725800006324
725800006324
725800006324
725800006324
725800006324
725800006324
725800006324
725800006324
325800006324
32580000A724
358D0000DA30
28D600028D60
0C72901B2890
0A286FF8B1C0
034B90078740
01E1BFF91D00
002D0001B400
0006EAAF8000
000015540000
ENDCHAR
STARTCHAR Uacute
ENCODING 218
SWIDTH 702 0
DWIDTH 25 0
BBX 23 41 1 -1
BITMAP
000000041000
00000018A000
00000035C000
000000A34000
000001C60000
0000024D0000
000007280000
00000D700000
000000000000
000000000000
000000000000
725800006324
725800006324
725800006324
725800006324
725800006324
725800006324
725800006324
725800006324
725800006324
725800006324
725800006324
725800006324
725800006324
725800006324
725800006324
725800006324
725800006324
725800006324
725800006324
325800006324
32580000A724
358D0000DA30
28D600028D60
0C72901B2890
0A286FF8B1C0
034B90078740
01E1BFF91D00
002D0001B400
0006EAAF8000
000015540000
ENDCHAR
STARTCHAR Ucircumflex
ENCODING 219
SWIDTH 702 0
DWIDTH 25 0
BBX 23 41 1 -1
BITMAP
000010400000
0000A2800000
0001C7180000
00075D0D0000
000D34974000
0028A071C000
0071C028A000
00D3400D3400
000000000000
000000000000
000000000000
725800006324
725800006324
725800006324
725800006324
725800006324
725800006324
725800006324
725800006324
725800006324
725800006324
725800006324
725800006324
725800006324
725800006324
725800006324
725800006324
725800006324
725800006324
725800006324
325800006324
32580000A724
358D0000DA30
28D600028D60
0C72901B2890
0A286FF8B1C0
034B90078740
01E1BFF91D00
002D0001B400
0006EAAF8000
000015540000
ENDCHAR
STARTCHAR Udieresis
ENCODING 220
SWIDTH 702 0
DWIDTH 25 0
BBX 23 40 1 -1
BITMAP
002E4006E400
00E5A01D5D00
028030240700
024024300300
028034340700
01D0A01D1D00
007F8007F400
000000000000
000000000000
000000000000
725800006324
725800006324
725800006324
725800006324
725800006324
725800006324
725800006324
725800006324
725800006324
725800006324
725800006324
725800006324
725800006324
725800006324
725800006324
725800006324
725800006324
725800006324
725800006324
325800006324
32580000A724
358D0000DA30
28D600028D60
0C72901B2890
0A286FF8B1C0
034B90078740
01E1BFF91D00
002D0001B400
0006EAAF8000
000015540000
ENDCHAR
STARTCHAR Yacute
ENCODING 221
SWIDTH 769 0
DWIDTH 28 0
BBX 27 40 0 0
BITMAP
00000000410000
000000028A0000
000000035C0000
0000000A340000
0000001C600000
00000024D00000
00000062800000
000000D7000000
00000000000000
00000000000000
00000000000000
718A000000D35C
28A34000028A34
0D35C0000718A0
0718A0000D35C0
0289340028A340
00D71C0071CA00
00728A00D35C00
0028D3428A3400
000D71C71CA000
000728A135C000
00028D34A24000
0000D71C4A0000
0000628A1D0000
000024D3580000
00001C71800000
00000510400000
00000110400000
00000325800000
00000325800000
00000325800000
00000325800000
00000325800000
00000325800000
00000325800000
00000325800000
00000325800000
00000325800000
00000325800000
00000325800000
ENDCHAR
STARTCHAR Thorn
ENCODING 222
SWIDTH 743 0
DWIDTH 27 0
BBX 25 29 1 0
BITMAP
72580000000000
72580000000000
72580000000000
72580000000000
72580000000000
7258FFFFF90000
7258000016D000
72580000007400
7258FFFFE81D00
725800001B4700
7258FFFFE4D340
725800001D7280
72580000073580
72580000032580
72580000072580
725800001A2580
7258FFFFF87240
72580000009700
72580000078D00
7258FFFFF97800
7258000006D000
7258FFFFFE0000
72580000000000
72580000000000
72580000000000
72580000000000
72580000000000
72580000000000
72580000000000
ENDCHAR
STARTCHAR germandbls
ENCODING 223
SWIDTH 424 0
DWIDTH 15 0
BBX 13 15 1 0
BITMAP
06FFE400
2D001D00
30000700
61FFD340
A3407240
A7003240
A70BFB00
A7001B40
A70BE280
A70028C0
A70018C0
A71FF4C0
A7000280
A7001B40
A71FF800
ENDCHAR
STARTCHAR agrave
ENCODING 224
SWIDTH 414 0
DWIDTH 15 0
BBX 15 21 0 0
BITMAP
00140000
00180000
00090000
00070000
00000000
00000000
0028D000
0035E000
0072B000
00A32800
00D75C00
01CB8D00
024DCA00
0318D700
0634A340
09707280
0CBFF5C0
18D018D0
25FFFC60
32800930
63400724
ENDCHAR
STARTCHAR aacute
ENCODING 225
SWIDTH 414 0
DWIDTH 15 0
BBX 15 21 0 0
BITMAP
00001400
00003400
0000A000
0001C000
00000000
00000000
0028D000
0035E000
0072B000
00A32800
00D75C00
01CB8D00
024DCA00
0318D700
0634A340
09707280
0CBFF5C0
18D018D0
25FFFC60
32800930
63400724
ENDCHAR
STARTCHAR acircumflex
ENCODING 226
SWIDTH 414 0
DWIDTH 15 0
BBX 15 21 0 0
BITMAP
00050000
001D0000
0034A000
00A03400
00000000
00000000
0028D000
0035E000
0072B000
00A32800
00D75C00
01CB8D00
024DCA00
0318D700
0634A340
09707280
0CBFF5C0
18D018D0
25FFFC60
32800930
63400724
ENDCHAR
STARTCHAR atilde
ENCODING 227
SWIDTH 414 0
DWIDTH 15 0
BBX 15 19 0 0
BITMAP
00BE0500
0186FC00
00000000
00000000
0028D000
0035E000
0072B000
00A32800
00D75C00
01CB8D00
024DCA00
0318D700
0634A340
09707280
0CBFF5C0
18D018D0
25FFFC60
32800930
63400724
ENDCHAR
STARTCHAR adieresis
ENCODING 228
SWIDTH 414 0
DWIDTH 15 0
BBX 15 20 0 0
BITMAP
00B47800
00B47800
00000000
00000000
00000000
0028D000
0035E000
0072B000
00A32800
00D75C00
01CB8D00
024DCA00
0318D700
0634A340
09707280
0CBFF5C0
18D018D0
25FFFC60
32800930
63400724
ENDCHAR
STARTCHAR aring
ENCODING 229
SWIDTH 414 0
DWIDTH 15 0
BBX 15 21 0 0
BITMAP
000B8000
00199000
00186000
000BC000
00000000
00000000
0028D000
0035E000
0072B000
00A32800
00D75C00
01CB8D00
024DCA00
0318D700
0634A340
09707280
0CBFF5C0
18D018D0
25FFFC60
32800930
63400724
ENDCHAR
STARTCHAR ae
ENCODING 230
SWIDTH 593 0
DWIDTH 21 0
BBX 21 15 0 0
BITMAP
0000C7FFFF80
00028F400000
00031E400000
000A36FFFF80
001C72800000
0024F5800000
0071A5FFFE00
009365C00000
01CA28FFFE00
024C18D00000
072418D00000
093FFCBFFF80
1C900CA00000
34C00CA00000
62800D7FFF80
ENDCHAR
STARTCHAR ccedilla
ENCODING 231
SWIDTH 446 0
DWIDTH 16 0
BBX 14 21 1 -6
BITMAP
006BF900
02E41B80
0E1BE4A0
28A45E00
72800100
97000000
D6000000
D6000000
D6000000
93400000
71E01A00
282FF860
0E0001D0
02E41B40
006FE400
00090000
001FD000
00197000
00002400
00107000
002FD000
ENDCHAR
STARTCHAR egrave
ENCODING 232
SWIDTH 363 0
DWIDTH 13 0
BBX 12 21 1 0
BITMAP
004000
00A000
003400
001800
000000
000000
A7FFFD
A70000
A70000
A7FFFD
A70000
A70000
A7FFF4
A70000
A7FFF4
A70000
A70000
A7FFFD
A70000
A70000
A7FFFD
ENDCHAR
STARTCHAR eacute
ENCODING 233
SWIDTH 363 0
DWIDTH 13 0
BBX 12 21 1 0
BITMAP
000050
0001C0
000240
000600
000000
000000
A7FFFD
A70000
A70000
A7FFFD
A70000
A70000
A7FFF4
A70000
A7FFF4
A70000
A70000
A7FFFD
A70000
A70000
A7FFFD
ENDCHAR
STARTCHAR ecircumflex
ENCODING 234
SWIDTH 363 0
DWIDTH 13 0
BBX 12 21 1 0
BITMAP
001400
007000
01D280
0340D0
000000
000000
A7FFFD
A70000
A70000
A7FFFD
A70000
A70000
A7FFF4
A70000
A7FFF4
A70000
A70000
A7FFFD
A70000
A70000
A7FFFD
ENDCHAR
STARTCHAR edieresis
ENCODING 235
SWIDTH 363 0
DWIDTH 13 0
BBX 12 20 1 0
BITMAP
02D1E0
02D1E0
000000
000000
000000
A7FFFD
A70000
A70000
A7FFFD
A70000
A70000
A7FFF4
A70000
A7FFF4
A70000
A70000
A7FFFD
A70000
A70000
A7FFFD
ENDCHAR
STARTCHAR igrave
ENCODING 236
SWIDTH 176 0
DWIDTH 6 0
BBX 5 21 0 0
BITMAP
5000
3400
1C00
0A00
0000
0000
29C0
29C0
29C0
29C0
29C0
29C0
29C0
29C0
29C0
29C0
29C0
29C0
29C0
29C0
29C0
ENDCHAR
STARTCHAR iacute
ENCODING 237
SWIDTH 176 0
DWIDTH 6 0
BBX 5 21 1 0
BITMAP
0040
0280
0700
0900
0000
0000
A700
A700
A700
A700
A700
A700
A700
A700
A700
A700
A700
A700
A700
A700
A700
ENDCHAR
STARTCHAR icircumflex
ENCODING 238
SWIDTH 176 0
DWIDTH 6 0
BBX 7 21 -1 0
BITMAP
0140
0A10
1C34
701C
0000
0000
0A70
0A70
0A70
0A70
0A70
0A70
0A70
0A70
0A70
0A70
0A70
0A70
0A70
0A70
0A70
ENDCHAR
STARTCHAR idieresis
ENCODING 239
SWIDTH 176 0
DWIDTH 6 0
BBX 7 20 0 0
BITMAP
F0B4
F0B4
0000
0000
0000
29C0
29C0
29C0
29C0
29C0
29C0
29C0
29C0
29C0
29C0
29C0
29C0
29C0
29C0
29C0
ENDCHAR
STARTCHAR eth
ENCODING 240
SWIDTH 455 0
DWIDTH 16 0
BBX 16 15 0 0
BITMAP
18FFE400
18C05B40
18C001D0
18FFE474
18D05E18
0000034C
0000018D
BFFC01C9
0000018D
18C0024C
18C01A18
18FFF474
18D001D0
18C05B40
18FFE400
ENDCHAR
STARTCHAR ntilde
ENCODING 241
SWIDTH 444 0
DWIDTH 16 0
BBX 14 19 1 0
BITMAP
01F90800
0347F400
00000000
00000000
A7400DA0
A7C00DA0
A7A00DA0
A7340DA0
A71C0DA0
A78A0DA0
A7D34DA0
A775CDA0
A718ADA0
A70A3DA0
A7035DA0
A701CDA0
A700ADA0
A7003DA0
A7001DA0
ENDCHAR
STARTCHAR ograve
ENCODING 242
SWIDTH 494 0
DWIDTH 18 0
BBX 16 21 1 0
BITMAP
00140000
001C0000
000A0000
00034000
00000000
00000000
006BE800
02E41B80
0E1BE4A0
28A45E24
7280028C
970000C9
D600009A
D6000096
D60000CA
93400289
71E01A0C
282FF824
0E0000A0
02E41B80
006FE800
ENDCHAR
STARTCHAR oacute
ENCODING 243
SWIDTH 494 0
DWIDTH 18 0
BBX 16 21 1 0
BITMAP
00001400
00007000
00009000
0001C000
00000000
00000000
006BE800
02E41B80
0E1BE4A0
28A45E24
7280028C
970000C9
D600009A
D6000096
D60000CA
93400289
71E01A0C
282FF824
0E0000A0
02E41B80
006FE800
ENDCHAR
STARTCHAR ocircumflex
ENCODING 244
SWIDTH 494 0
DWIDTH 18 0
BBX 16 21 1 0
BITMAP
00010000
000D0000
00287000
00A02800
00000000
00000000
006BE800
02E41B80
0E1BE4A0
28A45E24
7280028C
970000C9
D600009A
D6000096
D60000CA
93400289
71E01A0C
282FF824
0E0000A0
02E41B80
006FE800
ENDCHAR
STARTCHAR otilde
ENCODING 245
SWIDTH 494 0
DWIDTH 18 0
BBX 16 19 1 0
BITMAP
007E4600
00D1FD00
00000000
00000000
006BE800
02E41B80
0E1BE4A0
28A45E24
7280028C
970000C9
D600009A
D6000096
D60000CA
93400289
71E01A0C
282FF824
0E0000A0
02E41B80
006FE800
ENDCHAR
STARTCHAR odieresis
ENCODING 246
SWIDTH 494 0
DWIDTH 18 0
BBX 16 20 1 0
BITMAP
00783C00
00782C00
00000000
00000000
00000000
006BE800
02E41B80
0E1BE4A0
28A45E24
7280028C
970000C9
D600009A
D6000096
D60000CA
93400289
71E01A0C
282FF824
0E0000A0
02E41B80
006FE800
ENDCHAR
STARTCHAR divide
ENCODING 247
SWIDTH 418 0
DWIDTH 15 0
BBX 13 13 1 1
BITMAP
001E0000
00370000
00324000
002E0000
00000000
BFFFFF80
00000000
BFFFFF80
00000000
00000000
002E0000
00374000
002E0000
ENDCHAR
STARTCHAR oslash
ENCODING 248
SWIDTH 494 0
DWIDTH 18 0
BBX 16 15 1 0
BITMAP
006FE824
02E414A0
0E1BD1C0
28A44718
62801D0C
970074C9
D600D096
D6038096
960A00CA
61280289
30B01A1C
01CBF834
074000A0
1D641B40
146FF800
ENDCHAR
STARTCHAR ugrave
ENCODING 249
SWIDTH 400 0
DWIDTH 14 0
BBX 12 21 1 0
BITMAP
014000
00D000
007000
002800
000000
000000
A700A3
A700A3
A700A3
A700A3
A700A3
A700A3
A700A3
A700A3
A700A3
A30093
6281C6
30BF49
28001C
0B41B4
01BF80
ENDCHAR
STARTCHAR uacute
ENCODING 250
SWIDTH 400 0
DWIDTH 14 0
BBX 12 21 1 0
BITMAP
000140
000340
000600
000D00
000000
000000
A700A3
A700A3
A700A3
A700A3
A700A3
A700A3
A700A3
A700A3
A700A3
A30093
6281C6
30BF49
28001C
0B41B4
01BF80
ENDCHAR
STARTCHAR ucircumflex
ENCODING 251
SWIDTH 400 0
DWIDTH 14 0
BBX 12 21 1 0
BITMAP
001400
00A100
01C340
0741C0
000000
000000
A700A3
A700A3
A700A3
A700A3
A700A3
A700A3
A700A3
A700A3
A700A3
A30093
6281C6
30BF49
28001C
0B41B4
01BF80
ENDCHAR
STARTCHAR udieresis
ENCODING 252
SWIDTH 400 0
DWIDTH 14 0
BBX 12 20 1 0
BITMAP
03C2D0
03C2D0
000000
000000
000000
A700A3
A700A3
A700A3
A700A3
A700A3
A700A3
A700A3
A700A3
A700A3
A30093
6281C6
30BF49
28001C
0B41B4
01BF80
ENDCHAR
STARTCHAR yacute
ENCODING 253
SWIDTH 422 0
DWIDTH 15 0
BBX 15 21 0 0
BITMAP
00001000
00006000
0000D000
00028000
00000000
00000000
71C00A28
28A01C70
0D3434D0
0728A280
028EC700
01D78D00
00A2A800
0034F000
00000000
000C9000
000C9000
000C9000
000C9000
000C9000
000C9000
ENDCHAR
STARTCHAR thorn
ENCODING 254
SWIDTH 412 0
DWIDTH 15 0
BBX 13 15 1 0
BITMAP
A7000000
A7000000
A7000000
A7FFE400
A7001E00
A7FFE340
A7007680
A7003580
A7FFE180
A7000240
A7001A00
A7FFF800
A7000000
A7000000
A7000000
ENDCHAR
STARTCHAR ydieresis
ENCODING 255
SWIDTH 422 0
DWIDTH 15 0
BBX 15 20 0 0
BITMAP
00B47800
00B47800
00000000
00000000
00000000
71C00A28
28A01C70
0D3434D0
0728A280
028EC700
01D78D00
00A2A800
0034F000
00000000
000C9000
000C9000
000C9000
000C9000
000C9000
000C9000
ENDCHAR
STARTCHAR Edotaccent
ENCODING 278
SWIDTH 677 0
DWIDTH 24 0
BBX 23 34 1 0
BITMAP
000001F40000
000002F80000
000001F40000
000000000000
000000000000
7258FFFFFFF4
725800000000
7258FFFFFFF4
725800000000
7258FFFFFFF4
725800000000
725800000000
725800000000
725800000000
725800000000
725800000000
7258FFFFFF40
725800000000
725800000000
7258FFFFFF40
725800000000
7258FFFFFF40
725800000000
725800000000
725800000000
725800000000
725800000000
725800000000
7258FFFFFFF4
725800000000
7258FFFFFFF4
725800000000
725800000000
7258FFFFFFF4
ENDCHAR
STARTCHAR edotaccent
ENCODING 279
SWIDTH 363 0
DWIDTH 13 0
BBX 12 20 1 0
BITMAP
002E00
003F00
002E00
000000
000000
A7FFFD
A70000
A70000
A7FFFD
A70000
A70000
A7FFF4
A70000
A7FFF4
A70000
A70000
A7FFFD
A70000
A70000
A7FFFD
ENDCHAR
STARTCHAR dotlessi
ENCODING 305
SWIDTH 176 0
DWIDTH 6 0
BBX 4 15 1 0
BITMAP
A7
A7
A7
A7
A7
A7
A7
A7
A7
A7
A7
A7
A7
A7
A7
ENDCHAR
STARTCHAR OE
ENCODING 338
SWIDTH 1221 0
DWIDTH 44 0
BBX 42 29 1 0
BITMAP
000006BFFC0002FFFFFFF0
0000BA5000000000000000
000B86BFFC0001FFFFFFF0
00286E5000000000000000
00E2D1BFFC0001FFFFFFF0
028E1E5000000000000000
0A38A40000000000000000
1CA2800000000000000000
29CA000000000000000000
324C000000000000000000
6328000000000000000000
A7340000000001FFFFFE00
9630000000000000000000
DA30000000000000000000
DA300000000001FFFFFE00
D630000000000000000000
96340000000001FFFFFE00
A328000000000000000000
625C000000000000000000
31CA000000000000000000
28A3400000000000000000
1C35E00000000000000000
0A1D2E4000000000000000
028796FFFC0001FFFFFFF0
00E0B94000000000000000
002806FFFC0001FFFFFFF0
000B800000000000000000
0000BA5000000000000000
000006BFFC0002FFFFFFF0
ENDCHAR
STARTCHAR oe
ENCODING 339
SWIDTH 637 0
DWIDTH 23 0
BBX 22 15 1 0
BITMAP
006FF41FFFD0
02D400000000
0E0000000000
282BF41FFFD0
71E500000000
934000000000
9600001FFF00
DA0000000000
9600001FFF00
934000000000
71D000000000
286FF41FFFD0
0D0000000000
02D400000000
006FF41FFFD0
ENDCHAR
STARTCHAR Wcircumflex
ENCODING 372
SWIDTH 972 0
DWIDTH 35 0
BBX 33 40 1 0
BITMAP
000000145000000000
00000034D000000000
000000A28600000000
000001C70340000000
0000034D31C0000000
00000A2828A0000000
000028A00A28000000
000071C0034D000000
000000000000000000
000000000000000000
000000000000000000
C970000D63000358C0
D630000C97000325C0
97240018D600063580
63280024C900097240
325C00358C000D6300
358C00325C000C9700
25C90063584018D600
18CA0093258024C900
0C9700D631C0358C00
0D6300C970C0325C00
0972418D6090635800
0636825C95A0932400
0325C358C570D63000
0358C325C630C97000
025C963583258D6000
018DA17243684C9000
00C97063125C18C000
00D63097258C25C000
009724CA28C9358000
006358C918D6324000
00325C4C0C97130000
00358C1C0D63070000
0025C9280A32460000
0018D6240635890000
000C97200325C80000
000D63100258C40000
00097240028C900000
00063580018D600000
000325C000C9700000
ENDCHAR
STARTCHAR wcircumflex
ENCODING 373
SWIDTH 521 0
DWIDTH 19 0
BBX 19 21 0 0
BITMAP
0000500000
0001C40000
00074D0000
000D074000
0000000000
0000000000
A300C90634
72418D0A30
32825D0960
25835E0C90
18C32B18D0
1C963728C0
0CA9727580
096D75B240
063CB5E340
0728E8E300
0329CC9600
025E8D6900
018F497D00
01CB063C00
00DB032800
ENDCHAR
STARTCHAR Ycircumflex
ENCODING 374
SWIDTH 769 0
DWIDTH 28 0
BBX 27 40 0 0
BITMAP
00000145000000
00000A28000000
00001C70C00000
000034D0A00000
0000A289340000
0001C7075D0000
00075D01C70000
000D3400A28000
00000000000000
00000000000000
00000000000000
718A000000D35C
28A34000028A34
0D35C0000718A0
0718A0000D35C0
0289340028A340
00D71C0071CA00
00728A00D35C00
0028D3428A3400
000D71C71CA000
000728A135C000
00028D34A24000
0000D71C4A0000
0000628A1D0000
000024D3580000
00001C71800000
00000510400000
00000110400000
00000325800000
00000325800000
00000325800000
00000325800000
00000325800000
00000325800000
00000325800000
00000325800000
00000325800000
00000325800000
00000325800000
00000325800000
ENDCHAR
STARTCHAR ycircumflex
ENCODING 375
SWIDTH 422 0
DWIDTH 15 0
BBX 15 21 0 0
BITMAP
00050000
001D0000
0034A000
00A03400
00000000
00000000
71C00A28
28A01C70
0D3434D0
0728A280
028EC700
01D78D00
00A2A800
0034F000
00000000
000C9000
000C9000
000C9000
000C9000
000C9000
000C9000
ENDCHAR
STARTCHAR Ydieresis
ENCODING 376
SWIDTH 769 0
DWIDTH 28 0
BBX 27 39 0 0
BITMAP
0002F8006E4000
000A5A00D5A000
001C0242803000
00180242403400
00180242403000
000E0B01D0A000
0002F8007F8000
00000000000000
00000000000000
00000000000000
718A000000D35C
28A34000028A34
0D35C0000718A0
0718A0000D35C0
0289340028A340
00D71C0071CA00
00728A00D35C00
0028D3428A3400
000D71C71CA000
000728A135C000
00028D34A24000
0000D71C4A0000
0000628A1D0000
000024D3580000
00001C71800000
00000510400000
00000110400000
00000325800000
00000325800000
00000325800000
00000325800000
00000325800000
00000325800000
00000325800000
00000325800000
00000325800000
00000325800000
00000325800000
00000325800000
ENDCHAR
STARTCHAR circumflex
ENCODING 710
SWIDTH 298 0
DWIDTH 11 0
BBX 7 4 2 17
BITMAP
0500
1D00
34A0
A028
ENDCHAR
STARTCHAR dotaccent
ENCODING 729
SWIDTH 212 0
DWIDTH 8 0
BBX 4 3 2 17
BITMAP
78
BD
78
ENDCHAR
STARTCHAR ring
ENCODING 730
SWIDTH 212 0
DWIDTH 8 0
BBX 4 4 2 17
BITMAP
79
D6
C6
BD
ENDCHAR
STARTCHAR tilde
ENCODING 732
SWIDTH 329 0
DWIDTH 12 0
BBX 8 2 2 17
BITMAP
7E46
D1FD
ENDCHAR
STARTCHAR gravecomb
ENCODING 768
SWIDTH 0 0
DWIDTH 0 0
BBX 3 4 2 17
BITMAP
40
A0
34
1C
ENDCHAR
STARTCHAR acutecomb
ENCODING 769
SWIDTH 0 0
DWIDTH 0 0
BBX 3 4 2 17
BITMAP
04
28
70
D0
ENDCHAR
STARTCHAR uni0302
ENCODING 770
SWIDTH 0 0
DWIDTH 0 0
BBX 7 4 2 17
BITMAP
0500
1D00
34A0
A028
ENDCHAR
STARTCHAR tildecomb
ENCODING 771
SWIDTH 0 0
DWIDTH 0 0
BBX 8 2 2 17
BITMAP
7E46
D1FD
ENDCHAR
STARTCHAR uni0307
ENCODING 775
SWIDTH 0 0
DWIDTH 0 0
BBX 4 3 2 17
BITMAP
78
BD
78
ENDCHAR
STARTCHAR uni0308
ENCODING 776
SWIDTH 0 0
DWIDTH 0 0
BBX 7 2 2 18
BITMAP
F0B4
F0B4
ENDCHAR
STARTCHAR uni030A
ENCODING 778
SWIDTH 0 0
DWIDTH 0 0
BBX 4 4 2 17
BITMAP
79
D6
C6
BD
ENDCHAR
STARTCHAR uni0327
ENCODING 807
SWIDTH 0 0
DWIDTH 0 0
BBX 6 7 2 -6
BITMAP
0400
2800
7F80
6590
00A0
50D0
BF80
ENDCHAR
STARTCHAR Wgrave
ENCODING 7808
SWIDTH 972 0
DWIDTH 35 0
BBX 33 40 1 0
BITMAP
000000514000000000
00000031C000000000
000000289000000000
0000000D7000000000
000000072800000000
000000024D00000000
00000001C600000000
00000000A340000000
000000000000000000
000000000000000000
000000000000000000
C970000D63000358C0
D630000C97000325C0
97240018D600063580
63280024C900097240
325C00358C000D6300
358C00325C000C9700
25C90063584018D600
18CA0093258024C900
0C9700D631C0358C00
0D6300C970C0325C00
0972418D6090635800
0636825C95A0932400
0325C358C570D63000
0358C325C630C97000
025C963583258D6000
018DA17243684C9000
00C97063125C18C000
00D63097258C25C000
009724CA28C9358000
006358C918D6324000
00325C4C0C97130000
00358C1C0D63070000
0025C9280A32460000
0018D6240635890000
000C97200325C80000
000D63100258C40000
00097240028C900000
00063580018D600000
000325C000C9700000
ENDCHAR
STARTCHAR wgrave
ENCODING 7809
SWIDTH 521 0
DWIDTH 19 0
BBX 19 21 0 0
BITMAP
0000400000
0000A00000
0000340000
0000180000
0000000000
0000000000
A300C90634
72418D0A30
32825D0960
25835E0C90
18C32B18D0
1C963728C0
0CA9727580
096D75B240
063CB5E340
0728E8E300
0329CC9600
025E8D6900
018F497D00
01CB063C00
00DB032800
ENDCHAR
STARTCHAR Wacute
ENCODING 7810
SWIDTH 972 0
DWIDTH 35 0
BBX 33 40 1 0
BITMAP
000000005140000000
00000000D700000000
000000028D00000000
000000071800000000
000000093400000000
0000001CA000000000
00000035C000000000
000000A24000000000
000000000000000000
000000000000000000
000000000000000000
C970000D63000358C0
D630000C97000325C0
97240018D600063580
63280024C900097240
325C00358C000D6300
358C00325C000C9700
25C90063584018D600
18CA0093258024C900
0C9700D631C0358C00
0D6300C970C0325C00
0972418D6090635800
0636825C95A0932400
0325C358C570D63000
0358C325C630C97000
025C963583258D6000
018DA17243684C9000
00C97063125C18C000
00D63097258C25C000
009724CA28C9358000
006358C918D6324000
00325C4C0C97130000
00358C1C0D63070000
0025C9280A32460000
0018D6240635890000
000C97200325C80000
000D63100258C40000
00097240028C900000
00063580018D600000
000325C000C9700000
ENDCHAR
STARTCHAR wacute
ENCODING 7811
SWIDTH 521 0
DWIDTH 19 0
BBX 19 21 0 0
BITMAP
0000040000
0000280000
0000700000
0000D00000
0000000000
0000000000
A300C90634
72418D0A30
32825D0960
25835E0C90
18C32B18D0
1C963728C0
0CA9727580
096D75B240
063CB5E340
0728E8E300
0329CC9600
025E8D6900
018F497D00
01CB063C00
00DB032800
ENDCHAR
STARTCHAR Wdieresis
ENCODING 7812
SWIDTH 972 0
DWIDTH 35 0
BBX 33 39 1 0
BITMAP
00001B9001B9000000
000075780757400000
0000901C0D01800000
0000900C0C01C00000
0000900C0C01800000
000074280A07400000
00001FE002FD000000
000000000000000000
000000000000000000
000000000000000000
C970000D63000358C0
D630000C97000325C0
97240018D600063580
63280024C900097240
325C00358C000D6300
358C00325C000C9700
25C90063584018D600
18CA0093258024C900
0C9700D631C0358C00
0D6300C970C0325C00
0972418D6090635800
0636825C95A0932400
0325C358C570D63000
0358C325C630C97000
025C963583258D6000
018DA17243684C9000
00C97063125C18C000
00D63097258C25C000
009724CA28C9358000
006358C918D6324000
00325C4C0C97130000
00358C1C0D63070000
0025C9280A32460000
0018D6240635890000
000C97200325C80000
000D63100258C40000
00097240028C900000
00063580018D600000
000325C000C9700000
ENDCHAR
STARTCHAR wdieresis
ENCODING 7813
SWIDTH 521 0
DWIDTH 19 0
BBX 19 20 0 0
BITMAP
000B478000
000B474000
0000000000
0000000000
0000000000
A300C90634
72418D0A30
32825D0960
25835E0C90
18C32B18D0
1C963728C0
0CA9727580
096D75B240
063CB5E340
0728E8E300
0329CC9600
025E8D6900
018F497D00
01CB063C00
00DB032800
ENDCHAR
STARTCHAR uni1E9E
ENCODING 7838
SWIDTH 784 0
DWIDTH 28 0
BBX 26 29 1 0
BITMAP
7258FFFFFFFC00
72580000000000
7258FFFFFFFC00
72580000000000
7258FFFFFFFC00
72580000000000
72580000000000
725800018A3400
725800035CA000
7258000A35C000
7258001C628000
72580024D70000
725800628D2400
725800D7281D00
72580289358740
72580318A0B180
72580A35C628D0
72580000024DA0
7258000001C960
7258000000CA70
7258000000C970
7258000001C960
72580000068C60
72580FFFFE28D0
7258000001E1C0
72580FFFFE4340
72580000001D00
7258000005B400
72580FFFFE4000
ENDCHAR
STARTCHAR Ygrave
ENCODING 7922
SWIDTH 769 0
DWIDTH 28 0
BBX 27 40 0 0
BITMAP
00000450000000
00000934000000
00000718000000
00000289000000
000000D7000000
00000062800000
00000034D00000
0000001CA00000
00000000000000
00000000000000
00000000000000
718A000000D35C
28A34000028A34
0D35C0000718A0
0718A0000D35C0
0289340028A340
00D71C0071CA00
00728A00D35C00
0028D3428A3400
000D71C71CA000
000728A135C000
00028D34A24000
0000D71C4A0000
0000628A1D0000
000024D3580000
00001C71800000
00000510400000
00000110400000
00000325800000
00000325800000
00000325800000
00000325800000
00000325800000
00000325800000
00000325800000
00000325800000
00000325800000
00000325800000
00000325800000
00000325800000
ENDCHAR
STARTCHAR ygrave
ENCODING 7923
SWIDTH 422 0
DWIDTH 15 0
BBX 15 21 0 0
BITMAP
00040000
00060000
00034000
0001C000
00000000
00000000
71C00A28
28A01C70
0D3434D0
0728A280
028EC700
01D78D00
00A2A800
0034F000
00000000
000C9000
000C9000
000C9000
000C9000
000C9000
000C9000
ENDCHAR
STARTCHAR endash
ENCODING 8211
SWIDTH 507 0
DWIDTH 18 0
BBX 16 3 1 6
BITMAP
7FFFFFFD
00000000
7FFFFFFD
ENDCHAR
STARTCHAR emdash
ENCODING 8212
SWIDTH 552 0
DWIDTH 20 0
BBX 17 3 1 6
BITMAP
7FFFFFFFC0
0000000000
7FFFFFFFC0
ENDCHAR
STARTCHAR quoteleft
ENCODING 8216
SWIDTH 146 0
DWIDTH 5 0
BBX 4 5 1 10
BITMAP
C0
C0
C9
C9
C9
ENDCHAR
STARTCHAR quoteright
ENCODING 8217
SWIDTH 146 0
DWIDTH 5 0
BBX 4 5 1 10
BITMAP
C9
C9
89
09
09
ENDCHAR
STARTCHAR quotesinglbase
ENCODING 8218
SWIDTH 146 0
DWIDTH 5 0
BBX 4 5 1 -5
BITMAP
89
C9
C9
09
09
ENDCHAR
STARTCHAR quotedblleft
ENCODING 8220
SWIDTH 297 0
DWIDTH 11 0
BBX 9 5 1 10
BITMAP
C02400
C02400
C92580
C92580
C92580
ENDCHAR
STARTCHAR quotedblright
ENCODING 8221
SWIDTH 297 0
DWIDTH 11 0
BBX 9 5 1 10
BITMAP
C92580
C92580
892580
090180
090180
ENDCHAR
STARTCHAR quotedblbase
ENCODING 8222
SWIDTH 297 0
DWIDTH 11 0
BBX 9 5 1 -5
BITMAP
892580
C92580
C92580
090180
090180
ENDCHAR
STARTCHAR bullet
ENCODING 8226
SWIDTH 302 0
DWIDTH 11 0
BBX 8 7 1 4
BITMAP
06E4
1D5D
3407
7003
3007
291D
0BF4
ENDCHAR
STARTCHAR ellipsis
ENCODING 8230
SWIDTH 528 0
DWIDTH 19 0
BBX 17 3 1 0
BITMAP
A707243680
A707343680
A707343680
ENDCHAR
STARTCHAR guilsinglleft
ENCODING 8249
SWIDTH 178 0
DWIDTH 6 0
BBX 4 7 1 4
BITMAP
06
2D
11
07
A0
28
06
ENDCHAR
STARTCHAR guilsinglright
ENCODING 8250
SWIDTH 178 0
DWIDTH 6 0
BBX 4 7 1 4
BITMAP
60
2D
45
60
07
2D
60
ENDCHAR
STARTCHAR fraction
ENCODING 8260
SWIDTH 362 0
DWIDTH 13 0
BBX 13 15 0 0
BITMAP
0000A340
0001CA00
00024C00
00072800
00093000
001CA000
0035C000
00624000
00D70000
02890000
035C0000
0A340000
0C600000
28D00000
71800000
ENDCHAR
STARTCHAR uni2074
ENCODING 8308
SWIDTH 204 0
DWIDTH 7 0
BBX 6 8 1 7
BITMAP
0A00
2600
2900
9800
0250
BA50
BA50
0250
ENDCHAR
STARTCHAR Euro
ENCODING 8364
SWIDTH 462 0
DWIDTH 17 0
BBX 16 15 0 0
BITMAP
0006FE40
007905B4
01D2BA1D
075E46D0
05240050
00000000
BFFF4000
00000000
BFFF4000
00000000
0A2D01D0
0346FE49
01D00028
007905E0
0006FE40
ENDCHAR
STARTCHAR trademark
ENCODING 8482
SWIDTH 461 0
DWIDTH 17 0
BBX 15 7 0 8
BITMAP
BFF5901C
0002A89C
06028E8C
0602860C
0602800C
0602800C
0602800C
ENDCHAR
STARTCHAR minus
ENCODING 8722
SWIDTH 420 0
DWIDTH 15 0
BBX 13 3 1 6
BITMAP
BFFFFF80
00000000
BFFFFF80
ENDCHAR
STARTCHAR uni2215
ENCODING 8725
SWIDTH 278 0
DWIDTH 10 0
BBX 9 15 1 0
BITMAP
001140
006340
009700
00CA00
018D00
025C00
032800
063400
097000
0CA000
18D000
25C000
328000
634000
970000
ENDCHAR
STARTCHAR .notdef
ENCODING -1
SWIDTH 500 0
DWIDTH 18 0
BBX 16 41 1 -8
BITMAP
2AAAAAA8
7FFFFFFD
7800002D
7800002D
7800002D
7800002D
7800002D
7800002D
7800002D
7800002D
7800002D
7800002D
7800002D
7800002D
7800002D
7800002D
7800002D
7800002D
7800002D
7800002D
7800002D
7800002D
7800002D
7800002D
7800002D
7800002D
7800002D
7800002D
7800002D
7800002D
7800002D
7800002D
7800002D
7800002D
7800002D
7800002D
7800002D
7800002D
7800002D
7EAAAABD
7FFFFFFD
ENDCHAR
STARTCHAR NULL
ENCODING -1
SWIDTH 600 0
DWIDTH 22 0
BBX 1 1 0 0
BITMAP
00
ENDCHAR
STARTCHAR acutecomb.case
ENCODING -1
SWIDTH 0 0
DWIDTH 0 0
BBX 8 8 2 32
BITMAP
0041
018A
035C
0A24
1C70
28D0
7280
D300
ENDCHAR
STARTCHAR ampersand.case
ENCODING -1
SWIDTH 797 0
DWIDTH 29 0
BBX 26 31 1 -1
BITMAP
00000550000000
0000BAAE400000
00075BE5D00000
001DB51A740000
003680029C0000
00630BE0DA0000
00962968A70000
00DA300D630000
00D63009630000
0097341C930000
00A36875C60000
00718D174D0000
0034D71D380000
001C7681E00000
004A28A2400000
02C34A34000000
0A01C35C001000
2874A1CA00A000
71D028A281C600
A34A0D34D34D10
9728071D7128A0
D630028728A280
D63000A28E0700
96340034D74D00
A35D011C71C000
31D6FE4A28A000
287900534A3400
0A0BFF91D75D00
02D0001871C700
006EAAF428A280
00015500000000
ENDCHAR
STARTCHAR asciicircum.case
ENCODING -1
SWIDTH 540 0
DWIDTH 19 0
BBX 18 16 1 14
BITMAP
0000400000
0000D00000
0002800000
0003580000
000A340000
001C610000
0024D34000
0072818000
00D7189000
02890D7000
031C062800
0A34034C00
1CA001CA00
24D000A340
62800071C0
D700002890
ENDCHAR
STARTCHAR asciitilde.case
ENCODING -1
SWIDTH 640 0
DWIDTH 23 0
BBX 21 8 1 12
BITMAP
06FE80000000
2E41B8000240
60000B901F00
06FE91BFF400
39456E501740
06FE95BFF800
39456E401740
100001BFF900
ENDCHAR
STARTCHAR asterisk.case
ENCODING -1
SWIDTH 482 0
DWIDTH 17 0
BBX 14 14 2 15
BITMAP
00324000
00324000
00324000
64324680
2F403E40
41001040
B9000BD0
05000500
01001000
07002800
0D324D00
1891D600
02807000
00001000
ENDCHAR
STARTCHAR at.case
ENCODING -1
SWIDTH 915 0
DWIDTH 33 0
BBX 31 31 1 -1
BITMAP
0000005554000000
00001BEAAB900000
0001B400006E0000
000B41AFE902D000
002C1F9416E47400
00A0E400001E0D00
01C7400000028700
034D006FEA306180
0A3403D46E3028D0
1C601D0006300C60
28D0342FE6300A30
35C0A1E46E300724
3280D3400A300328
7241CA0006300258
73418D0006300258
63418C0006300258
7341CD0006300358
7240C90006300328
3280A70006340624
25C035D01E281D30
28D01D6FE70BF4A0
1C6007901B8001C0
0A3400BFF8A40B40
035D0000001FF900
01C7400000000000
00A1E00000100000
002D2E4006E00000
000B81BFFA440000
0001B900006D0000
00001BEAAF900000
0000005554000000
ENDCHAR
STARTCHAR backslash.case
ENCODING -1
SWIDTH 504 0
DWIDTH 18 0
BBX 18 34 0 -2
BITMAP
5114000000
725C000000
358D000000
28CA000000
1C97000000
0D63400000
0A32800000
0725C00000
0358D00000
028CA00000
01C9700000
00D6340000
00A3280000
00725C0000
00358D0000
0028CA0000
001C970000
000D634000
000A328000
000725C000
000358D000
00028CA000
0001C97000
0000D63400
0000A32800
0000725C00
0000358D00
000028CA00
00001C9700
00000D6340
00000A3280
00000725C0
00000358D0
0000028CA0
ENDCHAR
STARTCHAR bar.case
ENCODING -1
SWIDTH 262 0
DWIDTH 9 0
BBX 7 34 1 -2
BITMAP
1114
7258
7258
7258
7258
7258
7258
7258
7258
7258
7258
7258
7258
7258
7258
7258
7258
7258
7258
7258
7258
7258
7258
7258
7258
7258
7258
7258
7258
7258
7258
7258
7258
7258
ENDCHAR
STARTCHAR braceleft.case
ENCODING -1
SWIDTH 504 0
DWIDTH 18 0
BBX 16 33 1 -2
BITMAP
00258CBD
00358C00
00358CBD
00358C00
00358C00
00358CBD
00358C00
00358C00
00358C00
00358C00
00358C00
00358C00
00358C00
00358C00
7F358C00
00358C00
7F358C00
00358C00
7F358C00
00358C00
00358C00
00358C00
00358C00
00358C00
00358C00
00358C00
00358C00
00358CBD
00358C00
00358C00
00358CBD
00358C00
00358CBD
ENDCHAR
STARTCHAR braceright.case
ENCODING -1
SWIDTH 506 0
DWIDTH 18 0
BBX 15 33 2 -2
BITMAP
FC963000
00963000
FC963000
00963000
00963000
FC963000
00963000
00963000
00963000
00963000
00963000
00963000
00963000
00963000
009632F4
00963000
009632F4
00963000
009632F4
00963000
00963000
00963000
00963000
00963000
00963000
00963000
00963000
FC963000
00963000
00963000
FC963000
00963000
FC963000
ENDCHAR
STARTCHAR bracketleft.case
ENCODING -1
SWIDTH 453 0
DWIDTH 16 0
BBX 14 33 1 -2
BITMAP
7258FFD0
72580000
7258FFE0
72580000
72580000
7258FFD0
72580000
72580000
72580000
72580000
72580000
72580000
72580000
72580000
72580000
72580000
72580000
72580000
72580000
72580000
72580000
72580000
72580000
72580000
72580000
72580000
72580000
7258FFD0
72580000
72580000
7258FFE0
72580000
7258FFD0
ENDCHAR
STARTCHAR bracketright.case
ENCODING -1
SWIDTH 453 0
DWIDTH 16 0
BBX 14 33 1 -2
BITMAP
7FF58CA0
00018CA0
7FF58CA0
00018CA0
00018CA0
7FF58CA0
00018CA0
00018CA0
00018CA0
00018CA0
00018CA0
00018CA0
00018CA0
00018CA0
00018CA0
00018CA0
00018CA0
00018CA0
00018CA0
00018CA0
00018CA0
00018CA0
00018CA0
00018CA0
00018CA0
00018CA0
00018CA0
7FF58CA0
00018CA0
00018CA0
7FF58CA0
00018CA0
7FF58C90
ENDCHAR
STARTCHAR brokenbar.case
ENCODING -1
SWIDTH 262 0
DWIDTH 9 0
BBX 7 34 1 0
BITMAP
1114
7258
7258
7258
7258
7258
7258
7258
7258
7258
7258
7258
7258
7258
7258
1114
0000
0000
0000
7258
7258
7258
7258
7258
7258
7258
7258
7258
7258
7258
7258
7258
7258
7258
ENDCHAR
STARTCHAR bullet.case
ENCODING -1
SWIDTH 503 0
DWIDTH 18 0
BBX 16 15 1 7
BITMAP
001BE800
01E55B40
074001D0
0D1BE474
28751D28
35D0034C
3280018D
724000C9
324000CD
3640018C
29C00358
0DB41A34
075FF4A0
01E40780
006FF900
ENDCHAR
STARTCHAR uni0327.case
ENCODING -1
SWIDTH 0 0
DWIDTH 0 0
BBX 8 9 2 -8
BITMAP
0140
0700
0D00
1FE4
391D
0006
0006
901D
6FF4
ENDCHAR
STARTCHAR cent.case
ENCODING -1
SWIDTH 577 0
DWIDTH 21 0
BBX 17 34 2 -2
BITMAP
0000CA0000
0000CA0000
0000CA0000
0000CA0000
0000CA0000
0000000000
0000000000
0006FF9000
0079416E00
02D2BF92C0
0A1E517900
18A1BE4500
31CB55A000
A358001000
9634000000
C960000000
C960000000
C960000000
C960000000
D630000000
A328000000
728A41A000
28A1FF8400
0A2D006D00
0286FFA1C0
00B9005F40
000AFFE400
0000000000
0000000000
0000CA0000
0000CA0000
0000CA0000
0000CA0000
0000CA0000
ENDCHAR
STARTCHAR uni0302.case
ENCODING -1
SWIDTH 0 0
DWIDTH 0 0
BBX 15 8 2 32
BITMAP
00145000
00728000
01D74C00
034D0A00
0A289340
1C7075D0
35D01C70
A2800A28
ENDCHAR
STARTCHAR colon.case
ENCODING -1
SWIDTH 262 0
DWIDTH 9 0
BBX 7 20 1 0
BITMAP
7258
7258
7258
7258
7258
7258
0000
0000
0000
0000
0000
0000
0000
0000
7258
7258
7258
7258
7258
7258
ENDCHAR
STARTCHAR comma.case
ENCODING -1
SWIDTH 338 0
DWIDTH 12 0
BBX 9 10 2 -4
BITMAP
096340
0CA300
18D600
28C900
258D00
328C00
635800
A32400
963400
CA3000
ENDCHAR
STARTCHAR copyright.case
ENCODING -1
SWIDTH 895 0
DWIDTH 32 0
BBX 30 31 1 -1
BITMAP
0000005550000000
00001BAAAF800000
0001E40001B80000
000E41AFA50B4000
00782E545B91D000
01D1E00000787400
034B0000000A1D00
0A28000000028700
1C70006BE400A340
28D007945B4035C0
32801D2FE09028D0
634035E46D000CA0
A300A34004000970
9600CA0000000A30
D601C90000000630
DA018D0000000630
D601C90000000630
9600C70000000A30
A700A1D01D000970
6340746FE4900CA0
32801D0002C018D0
28D007901A0035C0
1CA000BFE400A340
0A2800000001C700
034A0000000B5D00
01D2D00000687400
00787E4016D1D000
000E46FFF90B4000
0001E40001B80000
00001BAAAF800000
0000005550000000
ENDCHAR
STARTCHAR currency.case
ENCODING -1
SWIDTH 676 0
DWIDTH 24 0
BBX 22 23 1 1
BITMAP
004000001000
00A000007400
09280001D200
074A00074E00
61D0000138A0
28706F90A1C0
0A02D56D0740
034A00074D00
00182F918400
0034E574D000
003280189000
0032400CA000
0032400C9000
0036801CD000
0028E075C000
010E6FD74400
0A03902D0740
28A0BFE471D0
A28400012C70
0A1D00028B00
08740000A140
01D000002800
004000000400
ENDCHAR
STARTCHAR degree.case
ENCODING -1
SWIDTH 413 0
DWIDTH 15 0
BBX 13 13 1 17
BITMAP
00550000
06EAE000
1D002C00
346E4B00
62D5D340
97007280
D6002580
DA002580
97003280
7281A300
28BF8A00
0A407800
01BF9000
ENDCHAR
STARTCHAR uni0308.case
ENCODING -1
SWIDTH 0 0
DWIDTH 0 0
BBX 17 7 2 32
BITMAP
1B9002F800
B5740A5B00
C0281C0240
C018180280
C018180240
A0740E0700
2FD002F900
ENDCHAR
STARTCHAR divide.case
ENCODING -1
SWIDTH 618 0
DWIDTH 22 0
BBX 20 18 1 6
BITMAP
00002E4000
0000A5C000
0000A1C000
00002F4000
0000000000
0000000000
7FFFFFFFFD
0000000000
7FFFFFFFFD
0000000000
0000000000
7FFFFFFFFD
0000000000
00002E4000
000066C000
000090C000
0000A1C000
00002F4000
ENDCHAR
STARTCHAR uni2215.case
ENCODING -1
SWIDTH 483 0
DWIDTH 17 0
BBX 16 29 0 0
BITMAP
00000CA3
000018D6
000025C9
0000328C
00006358
00009724
0000CA30
00018D60
00025C90
000328C0
00063580
00097240
000CA300
0018D600
0025C900
00328C00
00635800
00972400
00CA3000
018D6000
025C9000
0328C000
06358000
09724000
0CA30000
18D60000
25C90000
328C0000
63580000
ENDCHAR
STARTCHAR dollar.case
ENCODING -1
SWIDTH 660 0
DWIDTH 24 0
BBX 22 34 1 -2
BITMAP
000011400000
000032800000
000032800000
000132840000
006E328B8000
02D03281B400
0A0A32991D00
287932868700
31D13284B280
635E328E28C0
972432835C40
963032814000
972812800000
634B90000000
35E0BE400000
1C2E01B90000
0746E507D000
01A41BE47800
001B905E4A00
00006E41E280
000001B924D0
000020074C90
00003281C960
01203281C960
962832828CA0
A34A328E2890
71D13284B1C0
287932878340
0A4632891D00
02E43281B400
006E328E4000
000132800000
000032800000
000032800000
ENDCHAR
STARTCHAR eight.case
ENCODING -1
SWIDTH 561 0
DWIDTH 20 0
BBX 18 31 1 -1
BITMAP
0005550000
007EABD000
02D6F96800
0A7956DA00
19D0007280
3646F918C0
631D574CA0
962401C960
DA3000CA70
DA3000D630
D63400CA30
935D018960
61D7E41CA0
34786F44D0
1D0B91B480
07406E1D00
11E406D740
341F9075C0
6241BD1C90
9728074960
D63001CA30
DA3000D630
D63000D970
973401C960
635D075CA0
31C7FD34C0
287401D280
0A1BFE4A00
02D0006800
007EABD000
0005550000
ENDCHAR
STARTCHAR ellipsis.case
ENCODING -1
SWIDTH 766 0
DWIDTH 28 0
BBX 25 6 1 0
BITMAP
72580C96032580
72580C96032580
72580C96032580
72580C96032580
72580C96032580
72580C96032580
ENDCHAR
STARTCHAR emdash.case
ENCODING -1
SWIDTH 790 0
DWIDTH 28 0
BBX 26 6 1 12
BITMAP
7FFFFFFFFFFFE0
00000000000000
00000000000000
7FFFFFFFFFFFE0
00000000000000
7FFFFFFFFFFFE0
ENDCHAR
STARTCHAR endash.case
ENCODING -1
SWIDTH 721 0
DWIDTH 26 0
BBX 23 6 1 12
BITMAP
7FFFFFFFFFFC
000000000000
000000000000
7FFFFFFFFFFC
000000000000
7FFFFFFFFFFC
ENDCHAR
STARTCHAR equal.case
ENCODING -1
SWIDTH 618 0
DWIDTH 22 0
BBX 20 16 1 7
BITMAP
7FFFFFFFFD
0000000000
0000000000
7FFFFFFFFD
0000000000
7FFFFFFFFD
0000000000
0000000000
0000000000
0000000000
7FFFFFFFFD
0000000000
0000000000
7FFFFFFFFD
0000000000
7FFFFFFFFD
ENDCHAR
STARTCHAR Euro.case
ENCODING -1
SWIDTH 767 0
DWIDTH 28 0
BBX 27 31 0 -1
BITMAP
00000005550000
000001BAABE400
00001E40005E00
0000B41AFA42D0
000282E515B474
000A1E1BF91A00
001C74B516D280
0034D780002800
00624D00000400
00D72800000000
00892000000000
00000000000000
BFFFFFFFF00000
00000000000000
00000000000000
BFFFFFFFF00000
00000000000000
BFFFFFFFF00000
00000000000000
00441000000000
00D63400000000
00A31800000000
00728A00000800
0028D380002800
001D34B406E140
00070E1BFE4B40
0002C2E401B874
0000B46FFE41D0
00001E40001E40
000001BAABE400
00000005550000
ENDCHAR
STARTCHAR exclam.case
ENCODING -1
SWIDTH 262 0
DWIDTH 9 0
BBX 7 29 1 0
BITMAP
7258
7258
7258
7258
7258
7258
7258
7258
7258
7258
7258
7258
7258
7258
7258
7258
7258
7258
7258
7258
7258
0000
0000
7258
7258
7258
7258
7258
7258
ENDCHAR
STARTCHAR exclamdown.case
ENCODING -1
SWIDTH 262 0
DWIDTH 9 0
BBX 7 29 1 -7
BITMAP
7258
7258
7258
7258
7258
7258
0000
0000
7258
7258
7258
7258
7258
7258
7258
7258
7258
7258
7258
7258
7258
7258
7258
7258
7258
7258
7258
7258
7258
ENDCHAR
STARTCHAR five.case
ENCODING -1
SWIDTH 558 0
DWIDTH 20 0
BBX 18 30 1 -1
BITMAP
3FFFFFFFD0
0000000000
3FFFFFFFD0
0000000000
3FFFFFFFD0
0000000000
0000000000
3258000000
3258000000
3258000000
3258000000
3258FE4000
325805F400
3258001D00
3258FE0700
325806D180
3258F974D0
3258575CA0
000001C970
000000CA30
401000D630
D63000CA70
963401C960
A35D075CA0
71C7FD34C0
287401E280
0A1BFE4A00
02D0007800
007EABD000
0005550000
ENDCHAR
STARTCHAR four.case
ENCODING -1
SWIDTH 585 0
DWIDTH 21 0
BBX 19 29 1 0
BITMAP
0000A35C00
0000C62400
00028D7000
0003189000
000A35C000
000C624000
0028D70000
0035890000
00A35C0000
00D6240000
028D700000
0358900000
0A35C00000
0D62400000
18D70C9600
35C90C9600
51480C9600
00000C9600
FFFF4C963C
00000C9600
00000C9600
FFFF4C963C
00000C9600
FFFF4C963C
00000C9600
00000C9600
00000C9600
00000C9600
00000C9600
ENDCHAR
STARTCHAR uni2074.case
ENCODING -1
SWIDTH 312 0
DWIDTH 11 0
BBX 9 14 1 15
BITMAP
028D00
035800
0A3400
0D7000
189000
35C000
724000
0018C0
FF58C0
0018C0
0018C0
FF58C0
0018C0
0018C0
ENDCHAR
STARTCHAR fraction.case
ENCODING -1
SWIDTH 655 0
DWIDTH 24 0
BBX 20 29 2 0
BITMAP
000000018A
000000035C
0000000A24
0000000C60
00000028D0
0000007180
0000009340
000001CA00
0000034C00
0000062800
00000D7000
0000289000
000035C000
0000A34000
0001C60000
00028D0000
0007280000
0009300000
0018A00000
0035C00000
0062400000
00D7000000
028D000000
0718000000
0A34000000
1CA0000000
24C0000000
7280000000
D700000000
ENDCHAR
STARTCHAR gravecomb.case
ENCODING -1
SWIDTH 0 0
DWIDTH 0 0
BBX 8 8 2 32
BITMAP
4100
A240
35C0
18A0
0D30
0728
028D
00C7
ENDCHAR
STARTCHAR greater.case
ENCODING -1
SWIDTH 677 0
DWIDTH 24 0
BBX 22 25 1 2
BITMAP
500000000000
790000000000
078000000000
A0B400000000
2D1B40000000
46D1E0000000
B4782E000000
1E0B82D00000
02E0B4790000
002D1E478000
000791E0B400
0000782E1B40
00000B86D1D0
000091B47800
0007811E4400
006D1E018000
02D1B4740000
1E0B46D00000
A4782D000000
0791E0000000
2D1E40000000
A0B400000000
0B8000000000
780000000000
500000000000
ENDCHAR
STARTCHAR guillemotleft.case
ENCODING -1
SWIDTH 666 0
DWIDTH 24 0
BBX 22 19 1 5
BITMAP
000050000040
0002C0000280
001E00001E00
00745000B440
0292C0078280
0A1E000D1E00
10B45050B490
3842C0744280
0A0A001E0A00
51D00052D000
387800787800
0B4B400A0A40
51E1D051D1C0
282800787840
0B4B400B4B40
01E1D001D1C0
002D00002800
000740000B40
0001900001C0
ENDCHAR
STARTCHAR guillemotright.case
ENCODING -1
SWIDTH 666 0
DWIDTH 24 0
BBX 21 19 1 5
BITMAP
100000500000
380000780000
0B40000B4000
11E00051D000
282900787800
0B47000B4A00
61E05051D040
2811D07852C0
0A0B400A1E00
007850007440
02D2D002D2C0
1A0A001E1E00
34745074B480
12D2D0028280
1E1E001D1E00
34740074B400
028000078000
1E00001D0000
340000600000
ENDCHAR
STARTCHAR guilsinglleft.case
ENCODING -1
SWIDTH 338 0
DWIDTH 12 0
BBX 10 19 1 5
BITMAP
000050
0002C0
001E00
007450
0292C0
0A1E00
10B450
3842C0
0A0A00
51D000
387800
0B4B40
51E1D0
282800
0B4B40
01E1D0
002D00
000740
000190
ENDCHAR
STARTCHAR guilsinglright.case
ENCODING -1
SWIDTH 338 0
DWIDTH 12 0
BBX 10 19 1 5
BITMAP
100000
380000
0B4000
11E000
282900
0B4700
61E050
2811D0
0A0B40
007850
02D2D0
1A0A00
347450
12D2D0
1E1E00
347400
028000
1E0000
340000
ENDCHAR
STARTCHAR hyphen.case
ENCODING -1
SWIDTH 445 0
DWIDTH 16 0
BBX 14 6 1 12
BITMAP
7FFFFFD0
00000000
00000000
7FFFFFD0
00000000
7FFFFFD0
ENDCHAR
STARTCHAR less.case
ENCODING -1
SWIDTH 677 0
DWIDTH 24 0
BBX 22 25 1 2
BITMAP
000000000020
0000000001E0
000000001E40
00000001B460
0000000B86D0
000000782E00
00000691E0B0
00002D1A4780
0000A0B46D00
00180782D000
010B802E0000
02E0B4640000
782D1E400000
0B4791E00000
01A4782E0000
001E0B46D000
0002E1B47900
00006D1E4780
00000792E0B0
000000782D10
0000000B4690
00000001B470
000000001E00
0000000002E0
000000000020
ENDCHAR
STARTCHAR logicalnot.case
ENCODING -1
SWIDTH 618 0
DWIDTH 22 0
BBX 20 13 1 5
BITMAP
7FFFFFFFFD
0000000000
7FFFFFFFFD
0000000000
0000000000
7FFFFFFFFD
0000000000
00000018C9
00000018C9
00000018C9
00000018C9
00000018C9
00000018C9
ENDCHAR
STARTCHAR uni00B5.case
ENCODING -1
SWIDTH 792 0
DWIDTH 29 0
BBX 27 38 1 -9
BITMAP
72580000632400
72580000632400
72580000632400
72580000632400
72580000632400
72580000632400
72580000632400
72580000632400
72580000632400
72580000632400
72580000632400
72580000632400
72580000632400
72580000632400
72580000632400
72580000632400
72580000632400
72580000632400
72580000632400
72580000632400
72580000A72400
72580000DA3000
725800028D6100
7258D01B289380
72586FF8B1C0B8
72584007874A40
7258BFF91D12B8
72580001B47800
7258EAAF800BE4
72581554000054
72580000000000
72580000000000
72580000000000
72580000000000
72580000000000
72580000000000
72580000000000
11140000000000
ENDCHAR
STARTCHAR minus.case
ENCODING -1
SWIDTH 618 0
DWIDTH 22 0
BBX 20 6 1 12
BITMAP
7FFFFFFFFD
0000000000
0000000000
7FFFFFFFFD
0000000000
7FFFFFFFFD
ENDCHAR
STARTCHAR multiply.case
ENCODING -1
SWIDTH 580 0
DWIDTH 21 0
BBX 18 18 2 6
BITMAP
0040001000
01D000B000
007402C500
1C1D0B1D00
9B062C7490
76C0B1D280
1DA2C74A00
070B1D2800
012C74A000
00B1D28000
02C74A1400
0B1D281D00
2C74A10740
B1D282C1D0
474A1DB040
0D28076C00
00A001D400
0180006000
ENDCHAR
STARTCHAR nine.case
ENCODING -1
SWIDTH 558 0
DWIDTH 20 0
BBX 18 31 1 -1
BITMAP
0005550000
007EABD000
02D0006800
0A1BFE4A00
1C7401D280
35C7FD34D0
635D075CA0
972401C960
D63000DA70
DA30009630
D630009630
9724009630
A35E549630
71D6F89630
2879009630
0D0AF89630
0780009630
00B5049630
001AF89630
0000009630
0000009630
0000009630
D63000D670
963401C960
A31D574DA0
7286F91CD0
28D0007680
0A7946DA00
0296F96800
007EABD000
0005550000
ENDCHAR
STARTCHAR numbersign.case
ENCODING -1
SWIDTH 776 0
DWIDTH 28 0
BBX 25 29 1 0
BITMAP
00073580258C00
00063240258C00
000A3240325C00
00096300325800
00096300636800
000C9700000000
0B8C963FFFFFC0
0018DA00000000
0B18C97FFFFFC0
0029C900000000
00258C00000000
0A358CBFFFFFC0
00325800000000
00325801488000
0062140258C000
0000000368C000
7FFFFFE3258E00
00000007258000
7FFFFFD6325E00
0000000A324000
00000009634000
7FFFFFC9632E00
0000000CA70000
0258D00C960000
0258C018DA0000
0329C018C90000
03258029C90000
073580258C0000
063240358C0000
ENDCHAR
STARTCHAR one.case
ENCODING -1
SWIDTH 378 0
DWIDTH 14 0
BBX 12 29 0 0
BITMAP
7F8C96
000C96
7F8C96
000C96
7F8C96
000C96
000C96
000C96
000C96
000C96
000C96
000C96
000C96
000C96
000C96
000C96
000C96
000C96
000C96
000C96
000C96
000C96
000C96
000C96
000C96
000C96
000C96
000C96
000C96
ENDCHAR
STARTCHAR onehalf.case
ENCODING -1
SWIDTH 735 0
DWIDTH 26 0
BBX 24 29 1 0
BITMAP
7D7340000D70
007340002890
7D7340003180
00734000A340
00734001C600
007340024D00
007340072800
0073400D7000
00734018A000
00734035C000
007340A24000
007340C70000
0073428D0000
000007180000
000009340000
00001CA00000
000024C02FE0
00006280E468
0000D7018B8D
0002890259DA
00035C0000C6
000A34000389
001C60000A1C
0028D0002874
00728000A1D0
009300000000
01CA0003FFFD
035C00000000
06240003FFFD
ENDCHAR
STARTCHAR onequarter.case
ENCODING -1
SWIDTH 722 0
DWIDTH 26 0
BBX 24 30 1 -1
BITMAP
7D7340000D70
007340002890
7D7340003180
00734000A340
00734001C600
007340024D00
007340072800
0073400D7000
00734018A000
00734035C000
007340A24000
007340C70000
0073428D0000
000007180000
000009340000
00001CA00000
000024C028D0
0000628035C0
0000D7006240
00028900D700
00035C018900
000A34035C00
001C60072800
0028D000018D
0072800FF58D
00930000018D
01CA0000018D
035C000FF58D
06240000018D
00000000018D
ENDCHAR
STARTCHAR uni00B9.case
ENCODING -1
SWIDTH 306 0
DWIDTH 11 0
BBX 9 13 1 16
BITMAP
7D7340
007340
7D7340
007340
007340
007340
007340
007340
007340
007340
007340
007340
007340
ENDCHAR
STARTCHAR ordfeminine.case
ENCODING -1
SWIDTH 456 0
DWIDTH 16 0
BBX 13 13 2 16
BITMAP
00970000
00CB8000
018DC000
025C9000
072D6000
0A3A3000
0D672400
1C935800
28FF8C00
3581C900
72FFD600
92006300
C9003240
ENDCHAR
STARTCHAR ordmasculine.case
ENCODING -1
SWIDTH 489 0
DWIDTH 18 0
BBX 14 14 2 16
BITMAP
00154000
02EAF400
1E001A00
346F8280
A2D5B4C0
D6001CA0
C9000960
C8000960
C9000960
96000C90
629075C0
28BF9740
0B406D00
01BFE000
ENDCHAR
STARTCHAR paragraph.case
ENCODING -1
SWIDTH 893 0
DWIDTH 32 0
BBX 30 29 1 0
BITMAP
002BFFFFFFFFFFD0
01E5000000000000
0A1BFFFFFFFFFFD0
28B5000000000000
7287FFFFFFFFFFD0
A329000000000000
DA30000041100440
C960000096301C90
C960000096301C90
CA30000096301C90
D728000096301C90
A28BFFFC96301C90
70A4000096301C90
281FFFFC96301C90
0A00000096301C90
02E4000096301C90
006FFFFC96301C90
0000000096301C90
0000000096301C90
0000000096301C90
0000000096301C90
0000000096301C90
0000000096301C90
0000000096301C90
0000000096301C90
0000000096301C90
0000000096301C90
0000000096301C90
0000000096301C90
ENDCHAR
STARTCHAR parenleft.case
ENCODING -1
SWIDTH 290 0
DWIDTH 10 0
BBX 10 34 1 -2
BITMAP
005510
00C960
029CD0
0329C0
063240
096300
0C9600
18C900
258C00
329C00
725800
632400
A32400
963000
963000
D63000
DA3000
CA3000
DA3000
963000
963000
973400
632400
636800
325800
358C00
29C900
1CDA00
0DA700
0A7340
073580
0258C0
018DA0
00DA30
ENDCHAR
STARTCHAR parenright.case
ENCODING -1
SWIDTH 290 0
DWIDTH 10 0
BBX 11 34 -1 -3
BITMAP
A73400
725800
25CD00
1CDA00
0D6300
0A3240
032580
0368C0
029CD0
018CA0
00C960
00CA70
009630
009630
00A724
00A324
006324
006324
00A324
009734
009630
00D630
00C960
01CD60
018C90
0258C0
0325C0
063680
097340
0C9700
18C900
368C00
636800
551000
ENDCHAR
STARTCHAR percent.case
ENCODING -1
SWIDTH 827 0
DWIDTH 30 0
BBX 28 31 1 -1
BITMAP
00550000000000
06EAE00000728A
1D002C0000D71C
346E4B00028934
6291A340071CA0
970036800D35C0
DA00258028A340
D600358071CA00
9380A280A35C00
70BF8301CA3400
28000A035CA000
0A40780A25C000
01BF901C634000
00000034DA0000
000000A29C0000
000071C7000000
0000D24D000000
00018628000000
00034D7006FA00
000A28D02D46D0
001C7180A2F974
0034D341CA575C
00A28A025C01C9
00D71C036800DA
028934032800D6
0718A0035800CA
0D35C0028E078D
28A34000D2FD28
71CA00007400B0
A34D00001FAB80
00000000015400
ENDCHAR
STARTCHAR period.case
ENCODING -1
SWIDTH 262 0
DWIDTH 9 0
BBX 7 6 1 0
BITMAP
7258
7258
7258
7258
7258
7258
ENDCHAR
STARTCHAR periodcentered.case
ENCODING -1
SWIDTH 262 0
DWIDTH 9 0
BBX 7 6 1 12
BITMAP
7258
7258
7258
7258
7258
7258
ENDCHAR
STARTCHAR plus.case
ENCODING -1
SWIDTH 616 0
DWIDTH 22 0
BBX 20 20 1 5
BITMAP
0001144000
000258C000
000258C000
000258C000
000258C000
000258C000
000258C000
7FF258CBFD
000258C000
000258C000
7FF258CBFD
000258C000
7FF258CBFD
000258C000
000258C000
000258C000
000258C000
000258C000
000258C000
0002148000
ENDCHAR
STARTCHAR plusminus.case
ENCODING -1
SWIDTH 618 0
DWIDTH 22 0
BBX 20 27 1 0
BITMAP
0001144000
000258C000
000258C000
000258C000
000258C000
000258C000
000258C000
7FF258CBFD
000258C000
000258C000
7FF258CBFD
000258C000
7FF258CBFD
000258C000
000258C000
000258C000
000258C000
000258C000
000258C000
0002148000
0000000000
7FFFFFFFFD
0000000000
0000000000
7FFFFFFFFD
0000000000
7FFFFFFFFD
ENDCHAR
STARTCHAR question.case
ENCODING -1
SWIDTH 598 0
DWIDTH 22 0
BBX 18 30 2 0
BITMAP
0005540000
00BEAB9000
0790007800
0D1AF90A00
28B916D340
6286F871C0
972D5B28D0
CA30028CA0
C96001CD60
441000C960
0000018D60
0000070C90
00001D28C0
0000A0A280
0002878700
00071D2D00
000934A000
000C628000
000C970000
001C960000
001CD60000
001CD60000
0000000000
0000000000
001C960000
001C960000
001C960000
001C960000
001C960000
001C960000
ENDCHAR
STARTCHAR questiondown.case
ENCODING -1
SWIDTH 598 0
DWIDTH 22 0
BBX 19 30 1 -8
BITMAP
0003258000
0003258000
0003258000
0003258000
0003258000
0003258000
0000000000
0000000000
0003258000
0003258000
0003258000
0006358000
001D728000
0074934000
02D2860000
071E1D0000
0C74740000
28D2D00000
358A000000
324C000000
7258001104
3258007258
328C00A328
24CB56CA34
1C71BE1C70
0A2E45B4D0
0346BE4280
00E4001E00
002FAAE400
0001550000
ENDCHAR
STARTCHAR quotedbl.case
ENCODING -1
SWIDTH 464 0
DWIDTH 17 0
BBX 15 10 1 19
BITMAP
C9603258
C9603258
C9603258
C9603258
C9603258
C9603258
C9603258
C9603258
C9603258
C9603258
ENDCHAR
STARTCHAR quotedblbase.case
ENCODING -1
SWIDTH 464 0
DWIDTH 17 0
BBX 15 10 1 -4
BITMAP
C9603258
C9603258
C9603258
C9603258
C9603258
C9603258
09600258
09600258
09600258
09600258
ENDCHAR
STARTCHAR quotedblleft.case
ENCODING -1
SWIDTH 464 0
DWIDTH 17 0
BBX 15 10 1 19
BITMAP
C9003240
C9003240
C9003240
C9003240
C9603258
C9603258
C9603258
C9603258
C9603258
C9603258
ENDCHAR
STARTCHAR quotedblright.case
ENCODING -1
SWIDTH 464 0
DWIDTH 17 0
BBX 15 10 1 19
BITMAP
C9603258
C9603258
C9603258
C9603258
C9603258
C9603258
09600258
09600258
09600258
09600258
ENDCHAR
STARTCHAR quoteleft.case
ENCODING -1
SWIDTH 212 0
DWIDTH 8 0
BBX 6 10 1 19
BITMAP
C900
C900
C900
C900
C960
C960
C960
C960
C960
C960
ENDCHAR
STARTCHAR quoteright.case
ENCODING -1
SWIDTH 212 0
DWIDTH 8 0
BBX 6 10 1 19
BITMAP
C960
C960
C960
C960
C960
C960
0960
0960
0960
0960
ENDCHAR
STARTCHAR quotesinglbase.case
ENCODING -1
SWIDTH 212 0
DWIDTH 8 0
BBX 6 10 1 -4
BITMAP
C960
C960
C960
C960
C960
C960
0960
0960
0960
0960
ENDCHAR
STARTCHAR quotesingle.case
ENCODING -1
SWIDTH 212 0
DWIDTH 8 0
BBX 6 10 1 19
BITMAP
C960
C960
C960
C960
C960
C960
C960
C960
C960
C960
ENDCHAR
STARTCHAR registered.case
ENCODING -1
SWIDTH 895 0
DWIDTH 32 0
BBX 30 31 1 -1
BITMAP
0000005550000000
00001BAAAF800000
0001E40001B80000
000E41AFA50B4000
00782E545B91D000
01D1E00000787400
034B0000000A1D00
0A28000000028700
1C7028FFF900A340
28D028C0068035C0
328028FFF8D028D0
634028C01D600CA0
A30028C009600970
960028FFF8600A30
D60028C000900630
DA0028C002800630
D60028FFFE000630
960028C28D000A30
A70028C0C6000970
634028C0A3000CA0
328028C0728018D0
28D028C025C035C0
1CA014801890A340
0A2800000001C700
034A0000000B5D00
01D2D00000687400
00787E4016D1D000
000E46FFF90B4000
0001E40001B80000
00001BAAAF800000
0000005550000000
ENDCHAR
STARTCHAR uni030A.case
ENCODING -1
SWIDTH 0 0
DWIDTH 0 0
BBX 9 8 1 32
BITMAP
06E400
1D5D00
340700
300340
700240
340300
1D0A00
07F800
ENDCHAR
STARTCHAR section.case
ENCODING -1
SWIDTH 645 0
DWIDTH 23 0
BBX 21 37 1 -5
BITMAP
0001AFE50000
002E505B9000
00E055507800
0387EABE0A00
062D0006D340
0D70AFE47580
0CA3945E1840
0C9700024000
0CA380000000
0934BE400000
071E06B90000
0286E5078000
00B41BE47400
001F901E1C00
0141BE828900
071801B4D700
1C74A01C6300
28D740096300
258D000D6300
358C00289700
258D02D28A00
28D790061C00
1C746E902000
0A1E41AE0000
0281BE46D000
00B805B97400
000BE4074D00
00006B91DA00
00000068A300
0010000D6300
462D406CA300
A386FFE1C700
70B9001B4A00
1C1BFFE41C00
0B4000007400
01B9001B9000
001AFFE90000
ENDCHAR
STARTCHAR semicolon.case
ENCODING -1
SWIDTH 338 0
DWIDTH 12 0
BBX 9 23 2 -4
BITMAP
0A3240
0A3240
0A3240
0A3240
0A3240
0A3240
000000
000000
000000
000000
000000
000000
000000
096340
0CA300
18D600
28C900
258D00
328C00
635800
A32400
963400
CA3000
ENDCHAR
STARTCHAR seven.case
ENCODING -1
SWIDTH 505 0
DWIDTH 18 0
BBX 16 29 1 0
BITMAP
FFFFFFFE
00000000
FFFFFFFE
00000000
FFFFFFFE
00000000
00001444
0000358C
00007258
00006328
00009734
0000CA30
0001CD60
00028C90
000258D0
000325C0
00063580
00097240
000D6300
001C9600
0018CA00
00258D00
00328C00
00635800
00A32400
00963400
00C97000
018D6000
025C9000
ENDCHAR
STARTCHAR six.case
ENCODING -1
SWIDTH 558 0
DWIDTH 20 0
BBX 18 31 1 -1
BITMAP
0005550000
007EABD000
02D6F96800
0A7956DB00
29D0007280
3246F918D0
631D574CA0
962401C970
DA3000DA30
DA30000000
CA70000000
CA70000000
CA72FE4000
CA7105F400
CA70001D00
CA72FE0700
CA7006D180
CA72F974D0
CA71575CA0
CA7001C970
CA7000CA30
DA7000D630
D63000CA70
973401C960
625D075CA0
31D7FD34C0
287801E280
0A1BFE4A00
02D0007800
007EABD000
0005550000
ENDCHAR
STARTCHAR slash.case
ENCODING -1
SWIDTH 504 0
DWIDTH 18 0
BBX 18 34 0 -2
BITMAP
0000014450
0000025C90
00000328C0
0000063580
0000097240
00000CA300
000018D600
000025C900
0000328C00
0000635800
0000972400
0000CA3000
00018D6000
00025C9000
000328C000
0006358000
0009724000
000CA30000
0018D60000
0025C90000
00328C0000
0063580000
0097240000
00CA300000
018D600000
025C900000
0328C00000
0635800000
0972400000
0CA3000000
18D6000000
25C9000000
328C000000
6358000000
ENDCHAR
STARTCHAR uni00AD.case
ENCODING -1
SWIDTH 445 0
DWIDTH 16 0
BBX 14 6 1 12
BITMAP
7FFFFFD0
00000000
00000000
7FFFFFD0
00000000
7FFFFFD0
ENDCHAR
STARTCHAR sterling.case
ENCODING -1
SWIDTH 618 0
DWIDTH 22 0
BBX 22 30 0 0
BITMAP
000055500000
000BEAAE4000
00790001E000
02D1AFE42C00
070B505B4700
0D34AFA1A280
1CA3946D35C0
18CA00035880
18C900014000
1C9600000000
096240000000
000000000000
7FFFFFFF0000
000000000000
000000000000
7FFFFFFF0000
000000000000
7FFFFFFF0000
000000000000
000000000000
028D60000000
0A28D0000000
186280000000
000000000000
BFFFFFFFFFD0
000000000000
BFFFFFFFFFD0
000000000000
000000000000
BFFFFFFFFFD0
ENDCHAR
STARTCHAR three.case
ENCODING -1
SWIDTH 558 0
DWIDTH 20 0
BBX 18 31 1 -1
BITMAP
0005550000
007EABD000
0296F96800
0A7946DB00
28D0007680
7286F918D0
A31D574DA0
963401C970
D63000D630
000000DA30
000000C970
0000004C60
00003E4090
000005F480
0000001D00
00003E0700
000006D180
00003974D0
0000175CA0
000001C970
000000CA30
451000D630
D63000CA70
973401C960
635D075CA0
31C7FD34C0
287401E280
0A1BFE4A00
02D0007800
007EABD000
0005550000
ENDCHAR
STARTCHAR threequarters.case
ENCODING -1
SWIDTH 722 0
DWIDTH 26 0
BBX 23 30 2 -1
BITMAP
1BE4000035C0
741D0000A240
D7D70000C600
896300028D00
000300071800
00E400093400
006D001CA000
00070035C000
00D300628000
456300D70000
C7D702890000
B41D031C0000
1FF40A340000
00001C600000
000024D00000
000072800000
00009300A340
00018A00D700
00035C018900
000A24035C00
000D70062400
0028D00D7000
0071801CA000
00A340000634
01CA003FD634
024C00000634
072800000634
0D70003FD634
189000000634
000000000634
ENDCHAR
STARTCHAR uni00B3.case
ENCODING -1
SWIDTH 332 0
DWIDTH 12 0
BBX 8 13 2 16
BITMAP
1BE4
741D
D7D7
8963
0003
00E4
006D
0007
00D3
4563
C7D7
B41D
1FF4
ENDCHAR
STARTCHAR tildecomb.case
ENCODING -1
SWIDTH 0 0
DWIDTH 0 0
BBX 14 4 2 32
BITMAP
1B900050
747800D0
D00B42C0
C001FE00
ENDCHAR
STARTCHAR trademark.case
ENCODING -1
SWIDTH 850 0
DWIDTH 31 0
BBX 29 15 0 14
BITMAP
BFFFFF4CA00028C0
0000000CB80078C0
0000000CAD01E8C0
BFFFFF4C970358C0
00A7000CA28A28C0
0063000CB8BC78C0
0063000CAD39D8C0
0063000C975F58C0
0063000C91C618C0
0063000C90A018C0
0063000C902018C0
0063000C900018C0
0063000C900018C0
0063000C900018C0
0063000C900018C0
ENDCHAR
STARTCHAR two.case
ENCODING -1
SWIDTH 558 0
DWIDTH 20 0
BBX 18 30 1 0
BITMAP
0005550000
007EABD000
02D0006800
0A06FA0A00
287946D280
31D6F974D0
A35D575CA0
973401C960
D63000DA70
401000D630
000000CA30
0000028960
0000071C90
00001D35C0
000074A340
0001D28A00
00034A2C00
000E287400
0028B1D000
00A1C74000
02871D0000
0A1D740000
1824900000
0000000000
3FFFFFFFD0
0000000000
3FFFFFFFD0
0000000000
0000000000
3FFFFFFFD0
ENDCHAR
STARTCHAR uni00B2.case
ENCODING -1
SWIDTH 339 0
DWIDTH 12 0
BBX 10 13 1 16
BITMAP
06F900
1D4740
24B5C0
329C90
001C90
0074D0
01D280
074B00
0D1800
000000
7FFFD0
000000
7FFFD0
ENDCHAR
STARTCHAR underscore.case
ENCODING -1
SWIDTH 667 0
DWIDTH 24 0
BBX 22 6 1 0
BITMAP
7FFFFFFFFFD0
000000000000
7FFFFFFFFFD0
000000000000
000000000000
7FFFFFFFFFD0
ENDCHAR
STARTCHAR yen.case
ENCODING -1
SWIDTH 769 0
DWIDTH 28 0
BBX 27 29 0 0
BITMAP
718A000000D35C
28A34000028A34
0D35C000071CA0
0718A0000D35C0
0289340028A340
00D71C0071CA00
00728A00D35C00
0028D3428A2400
000D71C71CA000
000628A135D000
00024D34A28000
0001C718870000
0000A28A0D0000
000024D7580000
00001C72800000
00000510400000
00000110400000
00000325800000
002FE3258FF400
00000325800000
002FE3258FF400
00000325800000
00000325800000
002FE3258FF400
00000325800000
00000325800000
00000325800000
00000325800000
00000325800000
ENDCHAR
STARTCHAR zero.case
ENCODING -1
SWIDTH 558 0
DWIDTH 20 0
BBX 18 31 1 -1
BITMAP
0005550000
007EABD000
02D6FA6800
0A7946DA00
29D0007680
3246F918D0
631D574DA0
962401C960
DA3000C670
DA3000D630
CA70009630
CA70009630
CA70009630
CA70009630
CA70009630
CA70009630
CA70009630
CA70009630
CA70009630
CA70009630
CA70009630
DA70009630
D63000D970
973401C960
625D075CA0
31D7FD34D0
287801D280
0A1BFE4A00
02D0006800
007EABD000
0005550000
ENDCHAR
ENDFONT
